<?xml version="1.0" standalone="no"?>
<!DOCTYPE svg PUBLIC "-//W3C//DTD SVG 20010904//EN"
 "http://www.w3.org/TR/2001/REC-SVG-20010904/DTD/svg10.dtd">
<svg version="1.0" xmlns="http://www.w3.org/2000/svg"
 width="1280.000000pt" height="748.000000pt" viewBox="0 0 1280.000000 748.000000"
 preserveAspectRatio="xMidYMid meet">
<metadata>
Created by potrace 1.15, written by Peter Selinger 2001-2017
</metadata>
<g transform="translate(0.000000,748.000000) scale(0.100000,-0.100000)"
fill="#000000" stroke="none">
<path d="M6570 7474 c-25 -2 -121 -8 -215 -14 -155 -10 -314 -23 -635 -50 -63
-6 -246 -24 -406 -40 l-291 -30 -66 34 c-49 26 -83 36 -140 41 -98 9 -135 -7
-252 -114 -49 -46 -103 -89 -120 -96 -16 -8 -208 -48 -425 -90 -916 -176
-1083 -230 -1326 -425 l-85 -68 -87 -7 c-416 -32 -885 -145 -1217 -292 -309
-136 -536 -292 -750 -514 -351 -365 -531 -821 -552 -1404 -35 -991 508 -1653
1616 -1971 112 -32 172 -56 216 -83 201 -127 411 -190 592 -178 88 6 112 15
155 55 l27 25 218 -14 c280 -17 943 -15 1243 4 124 8 226 14 228 12 3 -3 -157
-214 -217 -285 -237 -282 -520 -529 -711 -621 -302 -145 -451 -325 -454 -549
-1 -72 3 -93 25 -141 98 -209 420 -363 999 -478 464 -92 1031 -146 1830 -172
417 -13 2136 -6 2415 10 757 45 1150 88 1559 172 526 108 838 261 943 461 24
47 27 64 27 143 -2 228 -129 387 -436 545 -62 32 -150 89 -209 135 l-100 80
68 2 c871 30 1353 75 1783 170 642 140 954 350 977 658 12 160 -81 361 -233
506 -151 142 -343 226 -606 265 -155 23 -524 15 -718 -15 -563 -88 -1231 -297
-1916 -601 -74 -33 -139 -60 -144 -60 -4 0 -49 64 -99 141 l-92 141 6 67 c13
130 -32 332 -109 494 -192 402 -652 741 -1236 912 -129 38 -160 57 -160 100 0
31 29 54 82 63 65 13 113 46 137 96 27 54 27 98 0 153 -22 46 -87 93 -127 93
-11 0 -23 3 -25 8 -3 4 3 39 13 78 66 258 279 423 546 424 372 1 654 127 813
365 83 124 131 276 147 463 l7 82 66 0 c238 -1 461 -84 518 -193 32 -62 34
-89 17 -220 -14 -102 -15 -138 -6 -177 l11 -49 -64 -123 c-145 -278 -228 -543
-256 -813 -23 -227 11 -335 145 -463 244 -232 651 -336 1361 -349 477 -9 834
24 1295 118 94 19 168 41 210 61 124 60 207 176 230 322 11 69 5 234 -21 566
-28 371 -96 610 -198 703 -28 26 -42 52 -65 122 -146 455 -519 864 -1013 1109
-307 153 -445 192 -1118 317 -297 55 -672 124 -833 154 l-294 55 -46 41 c-75
66 -120 82 -209 74 -57 -5 -91 -15 -140 -41 l-66 -34 -341 35 c-686 69 -1044
95 -1381 99 -148 2 -290 2 -315 0z m121 -217 c19 -12 43 -39 53 -58 l19 -36
256 -7 c424 -11 663 -32 756 -67 70 -26 129 -83 143 -139 6 -24 8 -48 5 -53
-3 -5 -232 -8 -557 -6 -497 3 -555 2 -588 -13 l-38 -17 -1 -128 c-1 -70 -2
-180 -3 -244 -1 -100 -4 -120 -20 -138 -39 -43 -164 -56 -209 -21 -44 35 -49
69 -38 287 l10 198 -23 23 c-13 13 -39 27 -59 32 -34 7 -443 -4 -1072 -31
-309 -13 -318 -12 -364 47 -42 53 -16 125 76 216 57 57 60 58 134 68 82 10
568 34 994 50 239 8 266 11 330 34 90 33 151 33 196 3z m2115 -44 l34 -37 -6
-505 c-7 -622 -11 -651 -74 -651 -34 0 -60 38 -85 123 -14 49 -16 98 -13 318
3 259 3 261 -19 279 -12 10 -46 21 -76 24 -29 4 -67 15 -84 26 l-31 19 5 118
c5 100 9 121 26 140 26 30 54 38 73 22 13 -11 15 -33 13 -122 -4 -117 -4 -117
53 -131 47 -11 60 24 63 162 3 156 30 252 71 252 9 0 32 -17 50 -37z m-4068
-86 c6 -7 14 -36 18 -64 6 -51 6 -52 -27 -68 -37 -20 -124 -46 -249 -75 -47
-12 -100 -29 -118 -40 -38 -24 -88 -91 -97 -130 -4 -17 -24 -45 -48 -65 l-41
-35 -115 0 c-173 0 -470 19 -492 30 -29 16 -23 39 24 85 70 70 207 109 446
126 226 16 314 33 418 84 98 46 195 108 227 144 22 24 39 27 54 8z m3548 -52
c12 -18 21 -82 34 -237 60 -697 66 -840 36 -923 -32 -90 -102 -175 -145 -175
-37 0 -77 180 -91 415 -14 241 -30 853 -23 872 7 19 119 73 150 73 13 0 30
-11 39 -25z m2560 -330 c206 -53 297 -93 494 -220 96 -61 216 -136 265 -165
101 -61 309 -258 364 -344 17 -27 58 -133 92 -235 72 -220 98 -276 182 -396
89 -127 143 -274 172 -471 8 -56 15 -130 15 -165 0 -35 7 -152 16 -259 18
-215 14 -255 -31 -309 -30 -35 -111 -59 -142 -42 -36 19 -42 37 -63 197 -50
385 -71 508 -91 529 -30 31 -84 25 -154 -18 -78 -47 -222 -105 -305 -123 -155
-33 -355 1 -390 65 -24 46 -2 138 38 160 44 24 237 81 272 81 32 0 48 -8 90
-45 79 -70 127 -62 179 27 49 86 119 138 185 138 17 0 26 7 30 25 8 32 -11
232 -30 314 -46 199 -191 448 -352 603 -100 97 -187 152 -337 214 -58 24 -145
64 -193 89 -181 93 -458 289 -487 344 -27 52 -3 53 181 6z m-6219 -60 c7 -21
-11 -1022 -19 -1030 -9 -9 -82 30 -123 66 -20 18 -48 52 -62 77 -47 80 -53
138 -43 427 15 413 10 373 60 417 46 41 83 56 143 57 25 1 40 -4 44 -14z
m4995 -80 c224 -58 479 -199 521 -288 31 -65 11 -275 -29 -304 -37 -27 -50
-17 -93 70 -89 184 -323 324 -629 376 -130 22 -152 35 -152 91 0 39 17 61 60
80 40 17 214 4 322 -25z m-5548 -157 c28 -12 40 -36 30 -61 -7 -18 -19 -23
-85 -31 -61 -9 -151 -53 -262 -128 -119 -82 -189 -148 -304 -285 -148 -178
-258 -251 -393 -261 -122 -8 -188 34 -175 113 18 115 178 350 269 397 56 28
170 34 275 14 l84 -15 51 46 c132 118 276 190 431 213 28 4 51 8 52 9 1 0 13
-4 27 -11z m-1854 -122 c0 -3 -102 -79 -227 -171 -335 -243 -374 -275 -431
-351 -80 -106 -169 -287 -202 -409 -9 -35 -27 -65 -60 -100 -66 -69 -83 -106
-88 -195 -4 -65 0 -88 26 -167 31 -91 31 -93 16 -145 -9 -29 -57 -145 -106
-258 -192 -437 -220 -535 -221 -770 0 -108 4 -155 15 -185 9 -22 26 -65 38
-95 12 -30 35 -103 50 -162 19 -71 39 -123 61 -155 38 -55 174 -192 242 -243
34 -26 50 -46 58 -75 6 -22 17 -52 25 -67 8 -16 12 -28 9 -28 -14 0 -185 75
-283 124 -665 334 -965 895 -892 1671 56 588 317 1043 780 1354 297 199 604
316 1100 420 51 10 90 13 90 7z m5521 -169 c74 -31 93 -103 37 -137 -86 -53
-241 -70 -561 -63 -266 6 -539 -7 -640 -31 -59 -14 -97 -38 -97 -62 0 -21 59
-83 105 -110 l43 -25 163 10 c90 5 313 15 494 22 283 11 334 11 359 -2 16 -8
31 -19 33 -25 7 -21 -44 -80 -97 -112 -137 -82 -208 -92 -655 -92 -478 0
-1906 38 -1942 51 -14 5 -24 20 -28 42 -8 41 7 75 38 85 12 5 267 4 566 -1
529 -8 545 -8 570 11 21 15 27 29 29 70 5 82 18 79 -433 92 -422 11 -489 17
-530 44 -38 25 -58 77 -49 131 12 83 -42 76 624 80 614 3 1367 20 1595 35 177
11 331 6 376 -13z m-3567 -19 c3 -13 7 -61 10 -108 15 -226 107 -433 257 -576
81 -76 140 -116 242 -164 174 -82 339 -115 642 -129 166 -8 215 -14 288 -36
194 -56 326 -152 426 -310 36 -57 39 -75 10 -75 -34 0 -92 -38 -119 -77 -33
-48 -34 -132 -3 -183 25 -41 81 -75 137 -83 46 -7 76 -32 76 -62 0 -43 -31
-62 -160 -100 -746 -218 -1253 -687 -1336 -1238 -10 -63 -13 -127 -9 -168 l6
-66 -81 -125 -81 -125 -82 -7 c-425 -33 -921 -47 -1257 -36 -135 5 -247 9
-248 9 -2 1 49 45 115 99 900 748 1193 993 1217 1022 66 78 83 176 47 256 -10
23 -22 74 -26 115 -19 206 -43 269 -122 319 -27 17 -57 49 -76 82 -18 29 -76
110 -128 179 l-96 127 -6 74 c-16 185 -103 457 -233 724 l-56 114 11 70 c29
187 124 317 298 408 92 48 223 87 305 91 21 1 29 -4 32 -21z m6423 -84 c203
-88 323 -164 323 -204 0 -40 -75 -40 -287 0 -182 34 -291 64 -311 84 -22 21
-9 55 45 118 35 42 55 57 75 57 14 1 84 -24 155 -55z m1023 -153 c83 -42 160
-99 160 -117 0 -27 -46 -39 -98 -26 -60 15 -183 31 -244 32 -84 0 -101 45 -41
111 37 41 38 41 98 37 43 -3 79 -13 125 -37z m-1310 -221 c124 -17 249 -38
278 -46 72 -20 122 -66 129 -121 5 -37 2 -43 -22 -59 -32 -21 -147 -23 -256
-3 -65 12 -71 11 -89 -7 -22 -21 -60 -159 -60 -216 0 -54 23 -71 121 -92 79
-17 87 -21 137 -72 55 -56 63 -83 37 -120 -29 -42 -63 -47 -166 -25 -52 12
-113 26 -137 33 -39 11 -44 10 -63 -9 -19 -18 -24 -45 -40 -219 -10 -110 -23
-269 -29 -354 -6 -85 -17 -178 -25 -206 -16 -56 -49 -104 -70 -104 -35 0 -133
46 -169 80 -37 35 -40 42 -44 101 -3 45 10 147 42 342 25 153 46 293 46 312 0
59 -20 71 -177 101 -40 8 -57 47 -47 107 12 71 33 80 192 85 153 5 152 4 177
167 17 111 17 117 0 136 -10 10 -37 24 -59 31 -23 6 -47 16 -53 21 -17 13 -17
118 0 141 14 19 68 34 102 29 11 -2 121 -17 245 -33z m-8151 -65 c60 -69 68
-96 56 -196 -13 -101 29 -149 132 -149 39 0 80 -18 88 -38 18 -47 -166 -143
-328 -172 -68 -13 -107 -40 -107 -77 0 -12 12 -53 26 -90 21 -57 25 -80 21
-140 -4 -76 -11 -90 -92 -191 -52 -65 -48 -85 26 -123 143 -72 144 -117 1
-188 -35 -18 -65 -38 -69 -47 -7 -20 15 -71 35 -80 10 -5 74 -10 144 -13 148
-7 165 -15 154 -75 -10 -50 -44 -65 -177 -77 -171 -15 -199 -37 -199 -159 0
-120 67 -478 112 -597 36 -97 95 -120 303 -122 187 -1 209 -6 213 -50 4 -37
-15 -64 -63 -89 -25 -13 -64 -15 -220 -14 -209 1 -250 -6 -274 -50 -13 -23
-13 -36 -3 -88 16 -76 66 -195 119 -282 l41 -67 -49 19 c-208 82 -392 231
-438 354 -29 79 -28 173 4 251 l25 60 -40 80 c-61 124 -83 225 -78 359 4 94
10 123 36 191 38 96 39 118 7 150 -24 24 -28 25 -184 25 -190 0 -211 5 -211
54 0 19 5 46 11 59 20 45 44 51 219 57 157 5 167 6 212 33 26 15 54 37 63 49
28 42 19 56 -64 97 -69 35 -131 87 -131 110 0 5 9 20 21 34 14 18 43 33 92 48
91 27 143 53 157 80 10 17 7 27 -13 58 -46 69 -67 120 -67 163 0 40 4 46 85
123 47 45 85 87 85 94 0 7 -15 28 -34 47 -30 30 -40 34 -86 34 -28 0 -60 -5
-72 -11 -11 -6 -52 -13 -92 -16 -76 -6 -116 5 -116 32 0 24 56 80 112 111 51
28 56 29 173 26 131 -3 210 10 225 37 5 10 16 70 24 135 21 158 32 194 71 233
44 44 74 43 114 -2z m9554 -95 c77 -9 109 -27 137 -73 40 -65 15 -125 -61
-147 -21 -6 -105 -8 -217 -4 -222 9 -224 9 -230 106 -5 76 5 99 50 122 28 14
51 16 143 11 61 -4 141 -10 178 -15z m-8299 -40 c35 -42 53 -104 36 -125 -18
-22 -76 -35 -161 -35 -77 0 -89 6 -89 43 0 21 142 147 166 147 12 0 33 -13 48
-30z m-1755 -24 c15 -16 21 -33 19 -52 -3 -25 -10 -31 -57 -47 -75 -25 -85
-19 -78 44 4 28 12 57 18 65 19 23 73 17 98 -10z m1532 -314 c154 -98 139
-232 -26 -232 -60 0 -75 12 -75 58 0 50 22 175 33 190 13 17 17 16 68 -16z
m4286 -518 c15 -24 15 -29 2 -53 l-15 -26 -684 0 -684 0 -15 26 c-13 24 -13
29 2 53 l17 26 680 0 680 0 17 -26z m-3789 -4 c18 -11 38 -31 44 -45 15 -32
-4 -54 -87 -100 -33 -19 -76 -46 -95 -60 -73 -54 -144 -52 -197 6 -65 71 -46
119 63 160 38 15 85 34 104 42 50 23 128 21 168 -3z m173 -279 c16 -16 29 -39
29 -52 0 -55 -117 -116 -283 -149 -92 -18 -105 -4 -66 73 58 113 120 156 227
157 57 0 67 -3 93 -29z m2634 -252 c95 -35 145 -92 145 -164 0 -102 -101 -175
-250 -183 -70 -3 -95 0 -144 18 -144 55 -188 178 -97 269 78 78 229 104 346
60z m918 -12 c78 -39 112 -85 112 -152 0 -67 -34 -113 -112 -152 -52 -25 -68
-28 -158 -28 -85 0 -107 4 -145 24 -83 43 -120 91 -120 156 0 70 44 122 136
161 84 35 204 31 287 -9z m-1621 -307 c26 -12 63 -39 82 -60 46 -51 54 -95 28
-153 -35 -79 -133 -127 -258 -127 -218 0 -338 158 -220 288 71 79 256 105 368
52z m2333 1 c230 -102 132 -341 -140 -341 -124 0 -222 49 -257 127 -25 57 -18
101 24 149 32 36 91 71 143 85 55 15 176 4 230 -20z m-981 -199 c346 -90 590
-307 625 -554 17 -125 -9 -232 -85 -349 -229 -349 -853 -488 -1339 -298 -392
153 -580 479 -446 774 103 225 348 385 696 451 47 9 128 12 250 10 163 -3 192
-6 299 -34z m1411 -66 c-50 -164 -132 -306 -245 -417 -199 -198 -390 -214
-390 -32 0 45 33 117 63 135 12 8 53 20 91 27 142 25 304 124 427 260 35 39
65 71 66 71 0 0 -5 -20 -12 -44z m-3161 -253 c63 -20 132 -87 141 -136 14 -74
-35 -146 -130 -189 -66 -29 -198 -32 -265 -5 -96 39 -140 92 -140 169 0 139
205 223 394 161z m6455 -324 c149 -14 285 -49 390 -101 209 -103 360 -336 312
-481 -28 -83 -153 -184 -311 -252 -417 -178 -1251 -286 -2299 -297 l-234 -2
-44 50 c-87 97 -239 280 -292 352 -43 59 -51 76 -40 83 27 17 368 160 545 228
578 222 1130 371 1519 410 226 23 302 25 454 10z m-6364 -231 c59 -31 79 -50
100 -102 22 -52 12 -98 -31 -145 -54 -61 -121 -86 -229 -86 -72 1 -100 5 -140
23 -86 40 -125 90 -125 162 0 52 23 93 72 126 64 45 105 55 208 51 79 -3 104
-8 145 -29z m2984 -3 c67 -37 101 -85 101 -143 0 -74 -38 -124 -125 -164 -40
-18 -68 -22 -140 -23 -108 0 -175 25 -229 86 -43 47 -53 93 -31 145 21 50 41
71 90 97 65 33 85 37 185 34 84 -2 101 -6 149 -32z m-3781 -178 c12 -45 45
-127 71 -182 300 -615 1125 -1026 2058 -1025 933 1 1757 412 2054 1025 27 55
59 137 71 182 13 46 26 83 29 83 14 0 31 -175 25 -249 -41 -448 -338 -842
-839 -1113 -268 -145 -577 -242 -933 -294 -132 -19 -531 -25 -710 -11 l-102 8
-11 -32 c-6 -17 -11 -56 -11 -85 0 -100 -16 -115 -150 -134 -124 -18 -473 -24
-616 -11 -294 28 -564 101 -787 215 -89 46 -219 127 -213 134 2 2 39 -8 82
-23 196 -64 505 -129 739 -156 227 -27 639 -12 715 24 22 11 25 19 24 60 0 25
-3 49 -6 52 -3 3 -57 19 -120 35 -611 155 -1104 504 -1308 924 -94 193 -134
399 -110 566 7 50 16 90 19 90 3 0 16 -37 29 -83z m1169 -307 c177 -78 176
-242 -2 -321 -39 -18 -68 -23 -135 -23 -67 0 -96 5 -135 23 -119 53 -165 147
-114 231 32 52 91 91 166 110 57 14 166 4 220 -20z m2196 -3 c173 -80 169
-239 -8 -318 -39 -18 -68 -23 -135 -23 -67 0 -96 5 -135 23 -170 76 -179 233
-18 315 84 42 208 44 296 3z m-1458 -208 c65 -29 105 -62 126 -106 41 -84 2
-163 -105 -214 -106 -50 -258 -38 -344 27 -124 95 -85 236 81 296 60 21 191
20 242 -3z m672 6 c62 -19 127 -65 149 -106 11 -22 15 -48 12 -81 -7 -64 -58
-119 -138 -149 -80 -30 -214 -24 -287 14 -119 61 -145 173 -61 256 75 73 209
100 325 66z m-2897 -241 c0 -4 -19 -42 -42 -86 -88 -165 -306 -423 -435 -515
-75 -54 -93 -77 -93 -120 0 -60 64 -110 262 -206 95 -46 204 -97 241 -113 l69
-29 -63 -3 c-140 -7 -480 71 -616 141 -29 15 -32 15 -47 -2 -10 -11 -41 -29
-69 -41 -63 -27 -152 -24 -239 9 -205 78 -188 172 54 298 174 90 492 308 828
567 129 100 150 114 150 100z m5973 -568 c50 -20 87 -70 87 -116 0 -37 -3 -40
-62 -74 -85 -47 -263 -119 -438 -177 -175 -58 -193 -76 -150 -146 19 -32 22
-33 86 -33 112 0 265 38 554 136 37 13 -45 -40 -159 -102 -363 -198 -788 -330
-1246 -386 -119 -14 -708 -19 -721 -5 -4 4 12 28 36 52 l44 45 126 0 c199 0
438 33 695 95 159 38 298 83 347 112 42 24 44 58 5 87 -27 20 -40 21 -310 22
-220 0 -299 4 -359 16 -92 20 -154 50 -164 80 -12 39 21 53 153 66 391 38 927
165 1338 316 81 30 94 31 138 12z m-6573 -760 c41 -8 143 -23 225 -32 211 -25
776 -25 1076 0 119 10 231 18 250 19 l34 2 3 -55 c4 -69 -4 -115 -25 -135 -13
-14 -38 -15 -182 -10 -450 16 -743 50 -1116 131 -151 32 -372 91 -350 93 6 1
44 -5 85 -13z"/>
<path d="M7365 3045 c-24 -23 -25 -29 -25 -165 l0 -140 -453 0 c-427 0 -455
-1 -470 -18 -25 -27 -21 -58 10 -82 26 -20 32 -21 516 -18 470 3 489 4 503 22
11 15 14 61 14 203 0 170 -1 184 -20 203 -26 26 -46 25 -75 -5z"/>
</g>
</svg>
