<?xml version="1.0" standalone="no"?>
<!DOCTYPE svg PUBLIC "-//W3C//DTD SVG 20010904//EN"
 "http://www.w3.org/TR/2001/REC-SVG-20010904/DTD/svg10.dtd">
<svg version="1.0" xmlns="http://www.w3.org/2000/svg"
 width="1278.000000pt" height="1280.000000pt" viewBox="0 0 1278.000000 1280.000000"
 preserveAspectRatio="xMidYMid meet">
<metadata>
Created by potrace 1.15, written by Peter Selinger 2001-2017
</metadata>
<g transform="translate(0.000000,1280.000000) scale(0.100000,-0.100000)"
fill="#fff" stroke="none">
<path d="M7733 12790 c-124 -23 -258 -85 -350 -165 -83 -71 -164 -222 -197
-366 -21 -92 -36 -253 -36 -393 0 -134 -33 -419 -80 -696 -99 -577 -225 -924
-429 -1187 -89 -114 -204 -224 -421 -404 -266 -221 -401 -360 -524 -542 -84
-124 -138 -231 -266 -532 -182 -425 -299 -685 -420 -930 -297 -603 -598 -1039
-822 -1192 l-70 -48 -157 -6 c-191 -8 -261 -27 -353 -97 -70 -53 -138 -146
-165 -225 -17 -49 -18 -188 -26 -2382 -4 -1282 -8 -2391 -9 -2465 0 -110 4
-150 22 -218 25 -94 77 -182 136 -231 97 -80 268 -137 502 -167 157 -19 1138
-199 1637 -299 427 -86 524 -100 805 -120 446 -32 1348 -83 1865 -107 369 -16
1159 -17 1345 0 703 63 1142 226 1546 573 223 191 402 407 484 582 72 154 81
202 89 482 9 323 -1 298 234 545 97 102 200 216 230 253 76 95 142 215 179
327 31 92 32 100 32 265 0 196 -11 242 -110 485 -31 74 -72 174 -92 222 -42
105 -45 96 70 223 246 275 318 381 369 545 20 62 24 96 23 200 0 113 -3 134
-32 217 -40 119 -83 203 -197 388 -50 83 -104 172 -120 198 l-27 48 73 95
c137 177 171 229 215 320 109 226 116 475 22 742 -102 293 -396 715 -635 914
-288 241 -546 321 -1188 373 -457 36 -1391 44 -1980 16 -93 -5 -172 -7 -174
-4 -11 9 33 154 85 286 31 78 127 288 214 467 252 519 329 696 414 952 132
394 184 732 173 1108 -12 387 -91 701 -252 1008 -224 424 -545 700 -995 857
-209 73 -494 111 -637 85z m402 -841 c381 -135 613 -467 680 -978 36 -266 6
-575 -86 -881 -72 -237 -161 -449 -386 -915 -315 -651 -381 -835 -414 -1162
-14 -129 -6 -326 15 -406 47 -174 159 -297 326 -358 80 -29 180 -30 765 -10
455 15 1599 10 1800 -8 328 -30 508 -66 623 -122 186 -91 522 -560 522 -729 0
-53 -2 -56 -130 -225 -171 -225 -234 -360 -247 -527 -15 -192 47 -367 234
-663 38 -61 86 -140 106 -176 l37 -66 -29 -39 c-16 -21 -73 -86 -126 -144
-250 -269 -336 -444 -336 -685 0 -132 25 -243 94 -410 24 -61 66 -161 91 -223
26 -62 49 -133 53 -158 5 -39 2 -50 -31 -100 -20 -30 -112 -133 -204 -227
-184 -189 -248 -269 -311 -387 -94 -178 -121 -302 -130 -605 l-6 -230 -34 -50
c-19 -27 -93 -109 -165 -180 -469 -467 -941 -546 -2731 -460 -165 8 -340 17
-390 20 -49 3 -245 14 -435 25 -1002 58 -983 56 -1450 155 -214 46 -1329 253
-1511 281 -142 22 -133 17 -125 71 3 25 6 974 6 2109 0 2025 0 2064 19 2064
36 0 203 60 284 102 385 200 788 726 1207 1573 142 287 201 418 417 919 68
158 138 316 155 350 74 149 172 256 428 469 227 188 454 409 547 532 323 428
498 919 612 1721 46 316 61 467 61 594 0 63 3 131 6 151 l6 37 62 -14 c33 -8
88 -24 121 -35z"/>
<path d="M830 6589 c-91 -10 -223 -50 -305 -91 -246 -125 -421 -342 -497 -618
l-23 -85 0 -2375 c0 -2220 1 -2379 17 -2442 92 -357 343 -615 689 -710 l84
-23 805 0 805 0 85 24 c346 99 595 352 682 697 l23 89 0 2365 0 2365 -28 100
c-83 303 -290 538 -569 645 -167 65 -141 63 -953 66 -407 1 -774 -2 -815 -7z
m1498 -804 c18 -11 43 -36 55 -55 l22 -35 0 -2275 c0 -2257 0 -2275 -20 -2309
-11 -19 -33 -43 -48 -55 -28 -21 -32 -21 -737 -21 -700 0 -709 0 -736 21 -15
11 -37 33 -48 48 l-21 27 -3 2271 c-2 2217 -2 2271 17 2313 25 56 60 79 136
86 33 4 350 6 705 5 626 -1 646 -2 678 -21z"/>
</g>
</svg>
