<?xml version="1.0" standalone="no"?>
<!DOCTYPE svg PUBLIC "-//W3C//DTD SVG 20010904//EN"
 "http://www.w3.org/TR/2001/REC-SVG-20010904/DTD/svg10.dtd">
<svg version="1.0" xmlns="http://www.w3.org/2000/svg"
 width="1280.000000pt" height="1280.000000pt" viewBox="0 0 1280.000000 1280.000000"
 preserveAspectRatio="xMidYMid meet">
<metadata>
Created by potrace 1.15, written by Peter Selinger 2001-2017
</metadata>
<g transform="translate(0.000000,1280.000000) scale(0.100000,-0.100000)"
fill="#fff" stroke="none">
<path d="M1555 12049 c-4 -6 -5 -12 -3 -14 5 -5 140 14 147 20 2 3 -28 5 -67
5 -39 0 -74 -5 -77 -11z"/>
<path d="M1796 12024 c-220 -32 -262 -43 -240 -62 8 -8 610 77 644 90 8 4 -28
6 -80 6 -57 0 -187 -13 -324 -34z"/>
<path d="M2265 12035 c-44 -13 -164 -53 -267 -89 -131 -45 -227 -71 -318 -87
l-130 -23 0 -63 c0 -35 2 -63 5 -63 2 0 88 14 189 30 122 20 211 30 261 28
l76 -3 -177 -59 c-150 -51 -190 -61 -265 -64 l-89 -4 0 -49 0 -49 177 0 c97 0
174 -3 170 -6 -3 -3 -81 -13 -174 -22 l-168 -17 -3 -47 c-3 -56 -13 -53 129
-34 110 15 291 29 274 21 -10 -5 -382 -75 -397 -75 -16 0 -7 -39 10 -43 16 -4
16 -5 -1 -6 -14 -1 -18 -8 -15 -28 2 -18 8 -27 18 -26 8 1 177 27 375 57 431
66 638 95 628 86 -5 -4 -174 -50 -378 -104 l-370 -97 -137 1 c-116 0 -138 -2
-138 -15 0 -12 14 -15 68 -15 76 0 70 -13 -15 -30 -49 -11 -53 -13 -53 -41 0
-33 6 -35 74 -14 39 12 115 15 374 15 179 0 323 -2 321 -4 -5 -6 -455 -78
-633 -103 -84 -11 -130 -22 -133 -31 -3 -7 -3 -15 0 -18 6 -7 239 27 695 102
l333 54 227 -1 c208 -2 218 -3 117 -10 -60 -5 -173 -13 -250 -19 -77 -6 -216
-24 -310 -41 -255 -45 -576 -89 -702 -96 -111 -6 -113 -6 -113 -30 0 -24 1
-24 73 -18 39 4 79 9 87 11 8 3 11 1 6 -3 -4 -4 -42 -17 -84 -28 -72 -19 -77
-22 -80 -49 l-4 -29 69 6 c83 8 312 16 263 10 -19 -2 -100 -10 -180 -16 l-145
-12 -1 -62 -1 -62 58 6 c77 8 79 -11 4 -27 -30 -6 -57 -16 -60 -21 -15 -23 11
-26 87 -8 99 22 230 35 208 21 -32 -21 -197 -62 -247 -62 l-53 0 0 -63 c0 -35
2 -66 5 -68 4 -5 382 30 494 45 80 11 37 -3 -90 -30 -107 -22 -337 -54 -391
-54 -14 0 -18 -9 -18 -40 l0 -41 53 7 c62 8 59 -3 -4 -14 -42 -7 -44 -9 -47
-45 l-3 -38 133 5 c218 9 534 15 523 11 -38 -17 -381 -77 -493 -85 -75 -6
-143 -13 -149 -15 -8 -3 -13 -22 -13 -46 l0 -42 43 6 42 6 -35 -13 c-43 -16
-45 -37 -5 -48 17 -5 264 -8 549 -8 286 0 517 -2 515 -5 -11 -10 -117 -25
-357 -50 -136 -14 -354 -37 -486 -50 -131 -14 -245 -25 -252 -25 -8 0 -14 -9
-14 -20 0 -19 7 -20 153 -21 85 0 143 -4 132 -8 -17 -7 -123 -27 -253 -47 -26
-4 -33 -9 -30 -25 3 -20 10 -20 301 -19 163 0 297 -1 297 -4 0 -2 -30 -18 -66
-35 l-66 -31 -234 0 -234 0 0 -35 0 -35 613 -1 c521 -1 606 -3 572 -14 -31
-10 -158 -14 -560 -14 -286 -1 -544 -4 -573 -8 l-53 -6 3 -44 3 -44 395 0
c227 1 389 -3 380 -8 -43 -25 -139 -31 -449 -31 l-326 1 -3 -65 -3 -65 123 -3
123 -3 -98 -32 c-53 -18 -108 -33 -122 -33 -23 0 -24 -2 -23 -75 1 -56 4 -75
15 -75 7 0 65 11 129 25 109 23 133 25 411 25 163 0 294 -2 292 -4 -3 -3 -77
-16 -165 -30 -171 -27 -207 -37 -239 -65 -14 -13 -77 -28 -210 -51 -215 -38
-235 -43 -235 -65 0 -13 31 -15 232 -15 128 0 228 -4 223 -8 -20 -18 -207 -63
-317 -77 -62 -9 -118 -17 -124 -19 -9 -3 -13 -63 -5 -72 1 -1 54 14 119 33 93
27 195 44 507 85 l390 51 350 4 c211 3 346 1 340 -5 -5 -5 -264 -73 -575 -152
-522 -133 -575 -144 -691 -151 -110 -7 -295 -27 -411 -45 l-36 -5 -1 -75 -1
-74 308 -2 307 -3 -305 -45 -305 -45 -3 -37 -3 -38 363 -2 363 -3 -360 -76
-360 -75 -3 -42 -3 -42 43 -1 43 -1 -40 -12 c-34 -11 -40 -17 -43 -44 -2 -20
1 -32 9 -32 6 0 311 13 678 30 681 31 854 45 1156 97 121 20 192 26 365 29
118 2 211 2 205 -1 -5 -3 -183 -48 -394 -100 l-383 -95 -819 7 -819 6 0 -21 0
-22 742 0 c436 0 738 -4 732 -9 -28 -27 -137 -31 -794 -31 -598 0 -680 -2
-680 -15 0 -13 76 -15 618 -16 l617 -1 -105 -30 -105 -31 -512 -4 c-441 -3
-513 -6 -513 -18 0 -13 59 -15 418 -16 328 0 412 -3 392 -12 -17 -8 -147 -13
-415 -17 l-390 -5 -3 -32 -3 -33 148 -1 c157 -2 138 -9 -59 -24 l-88 -7 0 -59
c0 -32 4 -59 8 -59 5 0 44 9 88 19 72 18 353 37 340 23 -11 -10 -303 -52 -369
-52 l-68 0 3 -37 3 -38 355 -5 355 -5 -125 -17 c-69 -10 -219 -25 -335 -33
-279 -22 -255 -14 -254 -80 2 -67 -12 -65 224 -29 128 20 223 27 385 31 118 3
213 3 210 0 -3 -4 -181 -36 -395 -72 -215 -36 -398 -68 -407 -71 -10 -3 -18
-12 -18 -21 0 -12 7 -14 33 -10 1071 183 1026 177 1318 177 133 0 240 -2 238
-5 -4 -3 -197 -27 -1019 -125 -41 -5 -174 -20 -295 -35 -262 -30 -275 -32
-275 -51 0 -17 9 -17 150 1 321 40 551 66 561 63 7 -2 -100 -19 -237 -37 -137
-19 -298 -41 -359 -50 l-110 -16 0 -75 0 -75 580 -5 580 -5 -160 -48 -160 -47
-422 0 c-369 0 -423 -2 -423 -15 0 -13 48 -15 368 -15 293 -1 363 -3 347 -13
-14 -8 -119 -13 -365 -17 -317 -5 -345 -6 -348 -22 -3 -16 16 -18 250 -20 214
-3 247 -5 213 -15 -22 -6 -134 -15 -250 -20 l-210 -8 -3 -47 c-2 -38 0 -47 15
-51 17 -4 17 -5 1 -6 -12 -1 -18 -9 -18 -26 l0 -25 643 -2 642 -3 -370 -65
-370 -65 -270 -2 -270 -3 -3 -30 -3 -30 58 -1 c50 -1 54 -2 28 -10 -16 -4 -42
-11 -57 -14 -21 -4 -28 -11 -28 -30 l0 -24 203 5 c116 2 191 0 177 -4 -26 -9
-211 -22 -317 -22 -56 0 -63 -2 -63 -20 0 -17 7 -20 53 -21 56 -1 55 -2 -10
-19 -40 -10 -43 -13 -43 -45 0 -31 3 -35 28 -36 l27 -1 -26 -9 c-24 -9 -27
-15 -28 -64 l-1 -55 132 0 c73 0 128 -4 122 -8 -14 -13 -91 -33 -174 -46 -76
-12 -91 -24 -76 -61 4 -12 11 -12 48 0 42 14 669 80 690 73 27 -9 -396 -78
-512 -83 -185 -9 -230 -14 -230 -30 0 -7 10 -16 23 -18 l22 -4 -22 -8 c-15 -5
-23 -15 -23 -31 l0 -24 148 -1 c118 -1 138 -3 102 -10 -25 -6 -90 -13 -145
-17 -94 -7 -100 -8 -103 -30 -3 -23 -2 -23 75 -18 l78 5 -50 -13 c-27 -8 -62
-15 -77 -15 -24 -1 -28 -5 -28 -31 0 -17 5 -30 13 -30 6 0 71 7 142 15 128 15
514 21 502 9 -4 -4 -152 -26 -329 -50 -178 -24 -324 -43 -325 -44 -2 0 -3 -31
-3 -70 l0 -70 1243 -2 1242 -3 -555 -80 -555 -80 -687 -3 c-597 -2 -688 -5
-688 -17 0 -13 70 -15 522 -15 287 0 519 -2 516 -5 -2 -3 -72 -15 -154 -27
-123 -18 -214 -22 -514 -27 -337 -6 -365 -7 -368 -23 -3 -17 11 -18 170 -19
l173 -1 -80 -13 c-44 -7 -122 -16 -173 -20 -87 -7 -93 -9 -90 -29 2 -13 9 -19
18 -17 20 6 488 12 475 6 -24 -10 -328 -57 -408 -62 l-88 -6 3 -31 c3 -30 4
-31 68 -37 36 -3 52 -6 35 -7 -16 -1 -47 -5 -68 -9 -32 -5 -37 -9 -35 -27 2
-12 8 -20 15 -19 66 13 162 24 278 32 77 6 207 16 288 22 82 6 151 9 153 6 12
-11 -376 -110 -521 -133 -235 -36 -215 -29 -215 -76 0 -37 2 -40 23 -33 27 9
345 19 336 11 -5 -5 -335 -66 -355 -66 -2 0 -4 -7 -4 -15 0 -20 22 -19 154 5
60 11 111 18 113 16 7 -7 -98 -33 -184 -46 l-83 -12 0 -35 c0 -30 3 -34 17
-27 18 9 901 19 892 10 -2 -2 -198 -25 -434 -51 -237 -25 -440 -48 -453 -51
-18 -4 -23 -10 -20 -32 2 -22 9 -28 38 -33 l35 -6 -37 -2 c-32 -1 -38 -5 -38
-22 0 -21 3 -21 58 -15 181 22 319 36 412 41 102 5 104 5 66 -10 -64 -25 -160
-37 -351 -44 l-180 -6 0 -35 c0 -19 5 -34 10 -34 6 1 46 4 90 8 67 4 74 4 45
-6 -19 -6 -60 -16 -90 -22 -54 -11 -55 -12 -58 -48 -2 -21 -1 -38 1 -38 2 0
149 20 327 45 177 25 327 44 332 43 6 -2 -66 -28 -158 -58 l-169 -55 -167 -3
c-136 -3 -168 -6 -168 -17 0 -11 22 -15 98 -17 l97 -3 -95 -30 c-87 -28 -95
-33 -98 -58 -2 -15 0 -27 4 -27 4 0 143 27 310 60 296 59 305 61 446 58 l143
-3 -245 -43 c-270 -48 -428 -74 -565 -94 -81 -12 -90 -15 -93 -35 -4 -28 -12
-28 161 1 127 21 338 43 312 31 -5 -2 -93 -22 -195 -44 -147 -32 -194 -38
-227 -32 -49 10 -53 7 -53 -32 0 -29 1 -29 42 -23 52 9 248 -4 248 -15 0 -5
-64 -10 -142 -11 l-143 -3 -3 -59 -3 -58 33 5 c18 4 120 16 226 28 188 22 192
22 213 3 31 -28 226 -26 372 4 109 22 199 27 272 14 32 -6 -29 -17 -295 -55
-325 -46 -342 -47 -578 -47 -227 0 -243 -1 -240 -17 3 -15 18 -19 88 -23 l85
-5 -83 -9 c-89 -9 -113 -26 -77 -52 17 -13 17 -14 2 -14 -17 0 -24 -35 -9 -43
4 -2 90 8 192 24 134 20 221 28 315 28 l130 0 -50 -15 c-208 -61 -335 -101
-455 -146 -115 -42 -140 -54 -140 -70 0 -15 4 -18 17 -13 91 39 386 138 543
183 l195 56 235 4 c129 2 232 1 229 -2 -3 -3 -90 -21 -195 -41 -332 -63 -553
-114 -789 -183 l-230 -68 -2 -52 c-1 -29 2 -52 6 -52 4 0 47 9 97 20 82 18
215 28 202 14 -4 -3 -73 -15 -154 -27 -123 -18 -149 -25 -152 -39 -5 -24 -10
-24 313 24 l280 42 365 4 c201 2 361 0 358 -4 -10 -9 -331 -40 -563 -54 -242
-14 -611 -39 -692 -46 l-63 -6 0 -34 c0 -34 0 -34 38 -29 183 26 841 90 848
82 5 -5 -29 -12 -311 -63 -163 -30 -234 -38 -385 -43 l-185 -6 -3 -32 -3 -33
428 -1 c249 -1 413 -5 393 -9 -32 -8 -543 -37 -735 -43 l-80 -2 -3 -43 -3 -42
169 0 c142 0 171 -2 176 -15 5 -13 -18 -15 -169 -15 l-175 0 0 -35 c0 -34 1
-35 38 -36 38 -1 37 -3 -10 -13 -16 -4 -28 -13 -28 -21 0 -19 -10 -19 186 10
121 19 198 25 278 23 l111 -3 -284 -47 c-156 -26 -285 -49 -288 -52 -3 -3 -3
-12 0 -21 5 -12 28 -15 124 -16 132 -1 129 -5 -19 -22 l-103 -12 -2 -43 c-1
-26 3 -42 10 -42 7 0 86 7 177 15 576 52 761 66 1041 75 560 17 591 18 586 14
-2 -2 -276 -66 -608 -141 l-604 -137 -303 -4 -303 -3 3 -32 3 -32 98 0 c53 0
97 -3 97 -6 0 -3 -37 -11 -82 -18 -113 -17 -118 -18 -118 -47 0 -13 2 -24 4
-24 2 0 55 12 117 26 183 41 319 64 373 63 49 -1 49 -2 -19 -10 -72 -10 -467
-88 -474 -94 -2 -2 -1 -10 2 -18 4 -11 41 -6 188 24 156 32 309 55 564 85 46
5 49 5 30 -9 -15 -12 -17 -19 -9 -27 12 -12 116 4 218 35 27 8 61 15 75 14 14
0 -50 -27 -143 -59 -217 -76 -314 -91 -660 -99 -194 -4 -260 -9 -264 -19 -2
-6 7 -16 20 -21 l23 -10 -22 0 c-14 -1 -23 -7 -23 -16 0 -20 19 -19 220 5 91
11 192 19 225 19 l60 -1 -85 -29 c-80 -28 -92 -29 -252 -29 l-168 0 0 -26 0
-27 98 6 c105 6 107 -7 2 -18 -94 -10 -100 -12 -100 -46 0 -35 4 -35 105 -4
122 39 391 76 516 73 l104 -3 -358 -59 c-256 -42 -360 -63 -364 -73 -3 -8 -4
-16 -2 -18 2 -2 204 29 449 69 278 45 447 69 452 63 7 -12 546 0 623 13 64 11
505 12 485 1 -37 -20 -276 -85 -495 -133 l-240 -52 -638 -4 -638 -3 3 -32 3
-32 320 -5 320 -5 -275 -13 c-151 -7 -296 -12 -322 -12 l-48 0 0 -35 0 -35
228 -1 c129 -1 216 -4 202 -9 -14 -4 -116 -8 -227 -9 -173 -1 -203 -3 -203
-16 0 -12 17 -15 88 -17 l87 -2 -85 -5 -85 -6 -3 -32 c-4 -39 6 -41 108 -18
71 16 401 20 365 5 -11 -5 -29 -12 -40 -16 -47 -19 67 -14 131 5 54 17 91 21
203 20 133 -1 135 -1 83 -14 -30 -7 -56 -16 -59 -19 -14 -13 119 -5 217 14 92
18 144 20 425 19 194 -1 308 -4 290 -10 -16 -4 -43 -12 -60 -16 -25 -7 -21 -8
31 -11 35 -2 100 6 154 18 75 16 127 20 260 19 182 -1 186 -16 5 -19 -60 -1
-132 -5 -160 -10 -28 -4 183 -8 482 -8 498 -1 537 0 600 19 55 15 100 19 230
19 l163 0 0 89 0 89 -337 -4 c-255 -3 -329 -1 -303 7 21 7 160 13 338 16 l302
5 0 34 c0 30 -3 34 -27 35 l-28 1 27 10 c24 8 28 15 28 49 0 21 -4 39 -9 39
-5 0 -182 -20 -393 -45 -402 -48 -567 -63 -556 -51 9 11 524 93 653 105 61 6
154 13 208 16 l97 7 0 69 0 69 -512 1 c-442 0 -508 2 -478 14 27 11 137 14
513 14 470 1 477 1 477 21 0 20 -7 20 -362 21 l-363 1 235 29 c129 15 292 31
363 35 l127 7 0 34 c0 25 -4 33 -17 33 -10 0 -126 -14 -258 -30 -132 -16 -244
-29 -250 -29 -5 0 37 17 95 36 97 33 117 36 265 42 l160 6 3 67 c2 38 2 68 0
68 -2 0 -82 -14 -178 -32 l-175 -32 -485 -3 c-302 -2 -479 0 -470 6 40 24 242
64 463 91 133 17 357 51 497 76 339 60 350 63 350 80 0 8 -6 14 -13 14 -7 0
-136 -22 -287 -49 -271 -49 -491 -83 -497 -77 -2 2 106 31 239 66 217 56 258
64 388 72 80 5 150 11 157 13 6 2 11 23 11 50 -1 37 -4 44 -17 41 -152 -45
-168 -46 -533 -44 l-353 3 80 22 c62 17 149 27 385 42 168 12 335 23 373 27
l67 6 0 34 0 34 -137 1 c-137 1 -138 1 -93 16 25 8 86 18 137 20 l92 5 0 114
c0 111 -1 114 -22 114 -12 0 -112 -7 -222 -15 -110 -8 -229 -14 -265 -14 l-65
1 50 9 c41 6 465 39 512 39 8 0 13 13 13 35 0 43 12 42 -205 10 -191 -29 -254
-35 -645 -66 -256 -20 -950 -41 -950 -29 0 3 105 23 233 44 127 20 367 60 532
87 318 53 507 68 883 69 l153 0 -3 28 c-2 15 -7 26 -13 26 -5 -1 -80 -4 -165
-7 l-155 -6 160 24 c88 13 163 24 168 25 4 0 7 7 7 15 0 20 -10 19 -221 -10
-100 -14 -186 -24 -192 -22 -6 2 28 13 74 25 46 13 140 40 209 61 l125 37 3
33 3 33 -168 -6 -168 -6 100 52 c82 43 112 53 165 58 l65 5 3 53 3 52 -43 1
-43 2 40 6 c36 5 40 9 43 38 3 31 2 32 -25 28 -70 -10 -126 -14 -119 -8 3 4
37 16 74 28 59 18 67 24 70 48 l3 27 -363 1 -363 1 60 19 c33 10 125 30 205
44 128 22 192 34 406 76 l52 10 1 144 c1 128 0 145 -15 145 -9 0 -64 -7 -121
-16 -58 -8 -112 -14 -121 -12 -9 2 45 23 120 47 l136 43 -1 87 0 86 -406 -2
-406 -2 165 24 c371 54 538 75 593 75 54 0 57 1 57 24 0 24 -1 24 -77 21 l-78
-4 75 12 c71 11 75 14 78 40 2 19 -1 27 -12 27 -8 0 -158 -18 -332 -40 -175
-22 -343 -39 -373 -39 -34 1 91 22 319 55 206 30 381 56 388 59 6 2 12 21 12
41 0 30 -3 35 -17 29 -10 -3 -67 -8 -128 -10 -109 -4 -110 -4 -35 6 180 24
175 22 178 48 4 23 2 24 -50 17 -121 -16 -129 -14 -43 8 63 16 91 28 93 40 2
9 -2 16 -10 16 -7 0 -138 -32 -292 -70 l-279 -70 -176 0 -176 1 295 94 295 94
173 1 172 0 0 34 c0 34 -1 35 -47 38 l-48 3 44 14 c40 14 61 34 48 47 -3 3
-49 -9 -104 -27 -97 -33 -99 -33 -323 -37 -124 -2 -222 -1 -218 3 14 14 555
103 640 105 10 0 8 90 -2 90 -4 0 -31 -5 -60 -10 -29 -6 -55 -8 -57 -6 -2 2
25 14 61 26 l66 22 0 39 c0 21 -1 39 -2 39 -2 0 -64 -9 -138 -20 -122 -18
-392 -28 -378 -15 4 4 496 85 515 85 2 0 3 7 3 15 0 9 -9 15 -22 15 -13 0
-180 -25 -373 -56 -324 -52 -561 -75 -620 -62 -12 3 33 21 110 46 118 38 157
44 435 76 168 19 342 38 388 42 70 6 82 10 82 25 0 16 -11 17 -147 13 -94 -3
-142 -2 -133 4 20 13 157 32 225 32 54 0 55 1 55 29 0 28 -1 28 -47 25 l-48
-4 48 15 c47 16 62 40 30 48 -17 4 -17 5 0 6 14 1 17 10 17 50 l0 50 -52 5
c-63 7 -505 36 -544 36 -53 0 -17 10 92 25 96 13 356 14 2124 11 l2015 -5 310
24 c171 14 313 25 318 25 4 0 7 7 7 15 0 17 -57 19 -192 7 -69 -7 -77 -6 -81
10 -3 10 -15 22 -26 26 -16 5 20 14 121 30 79 13 151 25 161 28 18 6 24 34 7
34 -5 0 -119 -18 -252 -41 -168 -28 -286 -42 -383 -46 -77 -3 -137 -3 -134 1
5 6 188 32 567 83 189 25 212 30 212 46 0 16 -6 18 -37 13 -36 -6 -424 -58
-523 -71 -69 -8 -44 -1 230 70 140 37 272 71 293 76 l37 10 0 55 0 56 -47 -6
c-62 -7 -431 -17 -418 -11 6 2 105 25 220 50 254 56 245 53 245 71 0 18 -18
18 -89 0 -31 -8 -183 -42 -339 -75 l-283 -61 -207 1 -207 1 270 89 270 89 293
0 292 0 0 40 0 39 -142 3 c-79 2 -136 6 -128 10 8 3 72 14 143 24 110 15 127
20 127 36 0 16 -6 18 -42 13 l-43 -5 43 16 c40 15 42 18 42 55 l0 40 -112 -6
c-88 -4 -107 -3 -88 6 14 6 64 13 113 16 l87 6 0 124 c0 123 0 123 -22 118
-13 -2 -131 -20 -263 -40 -213 -31 -259 -35 -405 -33 l-165 3 133 28 c141 30
284 48 556 68 l166 12 0 80 0 79 -37 -6 c-41 -6 -254 -34 -698 -91 -154 -19
-310 -40 -347 -45 -140 -21 -146 -9 -8 14 98 16 1055 146 1077 146 7 0 13 9
13 21 0 17 -5 20 -27 15 -51 -10 -415 -57 -418 -54 -2 2 96 23 217 48 200 40
246 56 226 75 -3 3 -250 -44 -549 -105 -299 -60 -548 -109 -552 -107 -13 4
832 236 939 258 53 10 111 19 130 19 33 0 34 1 34 39 l0 38 -157 -33 c-145
-31 -411 -69 -419 -61 -2 2 68 23 156 46 142 38 279 59 388 61 31 0 32 1 32
44 l0 44 -72 -19 c-64 -17 -108 -19 -407 -18 -360 2 -345 7 74 28 400 20 405
21 405 44 0 17 -5 19 -42 13 -56 -8 -1206 -68 -1226 -64 -8 2 155 34 362 72
l377 68 265 6 c248 5 264 6 264 24 0 16 -9 18 -67 19 l-68 2 68 10 c55 8 67
13 67 28 0 17 -8 19 -62 20 -66 1 -56 10 25 24 l37 6 0 54 0 55 -662 1 c-365
1 -656 3 -648 5 17 4 564 29 955 44 316 12 355 16 355 36 0 17 21 17 -365 -1
-407 -19 -481 -19 -489 0 -4 11 -33 15 -143 17 l-138 3 145 19 c80 11 210 23
290 26 80 4 -613 7 -1540 8 -1059 1 -1707 -2 -1745 -8 -58 -10 -296 -25 -540
-34 l-120 -5 165 25 c228 34 210 28 210 69 l0 34 -277 -6 c-209 -5 -274 -3
-269 5 4 7 16 12 27 12 18 0 436 72 497 85 23 6 31 35 9 35 -8 0 -177 -30
-378 -67 l-364 -66 -425 -4 c-258 -3 -421 -1 -415 5 6 5 179 50 385 101 l375
91 418 0 c410 0 417 0 417 20 0 20 -7 20 -332 21 l-333 1 255 64 c201 50 272
63 333 64 l77 0 0 66 0 67 -32 -7 c-118 -24 -257 -35 -523 -40 l-300 -5 280
44 c233 36 305 44 427 44 l146 1 0 35 c0 42 5 42 -178 15 -133 -20 -219 -26
-208 -14 5 4 353 54 381 54 4 0 7 32 7 71 l0 72 -142 -5 c-163 -7 -157 1 20
28 114 16 123 19 120 38 -4 25 -12 24 -168 -5 -192 -36 -514 -79 -590 -78
l-75 1 65 18 c53 16 401 63 698 96 40 4 66 12 69 21 3 8 3 16 1 18 -3 3 -42 0
-87 -6 -111 -15 -114 -5 -4 12 l88 14 3 38 c4 41 -1 43 -58 27 -205 -60 -526
-125 -885 -180 -220 -33 -416 -63 -435 -66 -97 -15 22 23 395 129 l410 116
245 16 c348 23 328 19 328 60 l0 35 -61 1 -62 2 63 10 c61 10 62 10 62 41 l0
31 -492 -3 c-271 -1 -490 0 -487 2 3 3 79 24 169 47 l165 43 323 4 c310 3 322
4 322 23 0 18 -8 19 -112 20 -131 1 -130 3 10 19 l102 12 0 94 0 93 -57 4 -58
3 58 2 57 2 0 50 0 50 -38 0 c-21 0 -193 -11 -383 -25 -189 -13 -393 -27 -454
-30 -60 -3 -130 -8 -154 -11 -25 -3 -41 -2 -37 4 3 5 38 12 78 15 40 3 278 24
528 46 250 23 456 41 458 41 1 0 2 9 2 20 0 19 -6 19 -177 15 -131 -3 -169 -2
-143 6 19 5 99 13 178 16 l142 6 0 50 0 50 -77 -6 c-159 -13 -369 -18 -346 -8
53 24 242 42 413 40 184 -2 212 -5 188 -21 -8 -6 18 -8 72 -4 165 11 997 19
1003 10 3 -6 227 -9 564 -7 l558 2 260 40 c143 22 307 45 365 51 58 6 146 15
195 20 171 18 164 9 -30 -40 -104 -27 -216 -52 -247 -56 -90 -10 -68 -24 30
-17 56 3 181 28 351 69 l263 64 317 -1 c290 -1 311 -2 256 -15 -98 -22 -529
-104 -548 -104 -9 0 -17 -4 -17 -9 0 -5 36 -7 83 -4 76 4 203 26 600 103 131
25 182 30 290 29 103 -1 123 -3 92 -10 -58 -13 -631 -98 -715 -105 -121 -12
-88 -24 47 -18 76 4 305 32 560 70 238 35 441 64 453 64 13 0 20 7 20 18 0 17
-13 18 -192 15 -228 -4 -224 4 23 44 148 24 169 30 169 46 0 15 -5 17 -27 13
-16 -3 -73 -13 -128 -21 -55 -9 -182 -32 -283 -51 -182 -34 -184 -34 -474 -34
-160 0 -289 2 -287 4 3 3 74 12 159 20 85 9 295 37 465 62 178 26 366 48 443
51 l132 6 0 108 0 109 -733 0 c-404 0 -737 3 -741 7 -4 4 107 22 246 40 l253
32 488 1 487 0 0 35 0 35 -187 1 c-130 1 -173 4 -138 9 28 5 112 9 188 9 l137
1 0 35 c0 31 -2 35 -22 30 -13 -2 -83 -12 -157 -20 -146 -17 -617 -20 -642 -4
-10 6 -5 9 18 9 75 0 529 32 648 45 72 8 136 15 143 15 7 0 12 14 12 35 l0 34
-122 3 -123 3 123 24 c114 23 122 27 122 48 l0 23 -472 1 c-260 0 -468 2 -463
4 6 2 98 16 205 31 157 21 248 28 463 31 l267 5 0 45 0 45 -37 -6 c-21 -3
-123 -8 -228 -11 -173 -4 -186 -3 -140 10 32 8 112 13 228 14 l177 1 0 50 0
50 -82 1 c-68 1 -76 3 -48 9 19 5 56 12 83 15 l47 6 0 49 0 48 -185 -48 c-298
-78 -340 -81 -935 -78 l-515 3 51 27 c28 15 97 38 152 52 89 23 121 26 284 26
216 1 838 16 1021 26 108 6 127 9 127 23 0 14 -10 16 -67 13 -212 -10 -532
-19 -772 -21 -151 -1 -286 -4 -300 -8 -17 -4 -23 -2 -16 4 6 6 111 27 235 48
l225 39 348 4 c293 3 347 6 347 18 0 12 -32 14 -187 16 l-188 1 185 11 185 11
3 53 3 52 -46 0 c-28 0 -44 4 -40 10 3 6 17 10 30 10 34 0 55 10 55 26 0 19
-15 18 -165 -13 -116 -23 -158 -27 -380 -30 -148 -2 -244 0 -235 5 8 5 44 12
80 15 36 4 157 15 270 26 113 11 256 23 318 27 101 6 112 9 112 26 0 18 -6 19
-67 13 -38 -3 -149 -12 -248 -20 -238 -20 -522 -52 -615 -70 -41 -7 -104 -17
-138 -21 -59 -6 -64 -5 -60 12 3 15 16 20 64 26 33 3 150 24 260 46 109 22
246 43 304 47 58 3 193 17 300 31 107 13 196 24 197 24 2 0 3 16 3 36 l0 37
-127 -7 c-71 -4 -171 -9 -223 -12 -81 -4 -92 -3 -75 8 14 9 78 14 223 16 191
4 202 5 202 23 0 17 -8 19 -87 20 l-88 1 85 22 85 22 3 38 c3 36 2 38 -20 32
-13 -4 -90 -9 -173 -11 l-150 -4 173 27 c148 23 172 29 172 44 0 15 -9 18 -57
19 -50 1 -54 2 -28 10 17 4 42 11 58 14 24 5 27 10 27 47 l0 41 -177 -6 c-98
-4 -248 -11 -333 -17 -85 -5 -193 -12 -240 -14 l-85 -5 50 15 c28 8 136 40
240 71 105 31 197 60 205 64 30 16 -170 9 -310 -12 -78 -11 -144 -19 -146 -16
-2 2 22 10 53 18 l58 14 -57 3 c-41 2 -135 -15 -350 -62 -289 -64 -435 -92
-444 -83 -2 2 22 9 53 16 74 16 365 110 377 122 24 22 -73 6 -191 -32 -117
-37 -450 -122 -583 -148 -51 -10 -374 -41 -429 -41 -18 0 -3 13 58 49 l82 49
297 41 c332 46 510 75 520 86 14 15 -202 -5 -483 -45 -159 -22 -333 -42 -385
-45 -52 -2 -165 -18 -250 -34 -85 -16 -240 -41 -345 -56 -104 -14 -252 -35
-328 -45 -129 -19 -140 -19 -170 -3 -18 9 -27 18 -22 19 163 50 717 188 776
193 44 5 83 11 86 15 16 16 -350 2 -497 -19 l-35 -5 30 14 30 14 -51 1 c-27 1
-93 -10 -145 -24 -67 -18 -194 -35 -444 -60 -329 -33 -712 -79 -762 -92 -18
-4 -23 -1 -23 15 0 11 -12 30 -27 41 -25 18 -26 20 -8 21 49 1 767 89 773 94
3 4 -109 5 -249 3 -242 -3 -266 -6 -499 -45 -192 -32 -283 -42 -420 -47 -96
-3 -193 -8 -215 -12 -82 -11 -21 10 145 52 94 24 174 46 177 49 4 3 -17 6 -46
6 -30 0 -152 -25 -294 -61 -133 -33 -291 -67 -351 -75 -61 -8 -169 -30 -241
-49 -84 -23 -154 -35 -195 -35 -35 0 -61 2 -59 4 2 2 186 48 409 101 223 54
412 101 420 106 10 5 -5 9 -41 9 -33 0 -128 -18 -234 -44 -150 -37 -181 -42
-190 -30 -8 11 -79 14 -382 16 -205 2 -369 6 -365 9 4 3 28 12 55 19 26 7 50
17 53 21 11 19 -78 8 -171 -21 -58 -18 -118 -30 -149 -29 l-51 0 78 24 c43 12
81 26 84 29 4 3 -100 6 -229 6 l-236 0 -418 -69 c-657 -109 -685 -113 -691
-107 -4 3 -1 6 5 6 7 0 146 22 309 50 164 27 375 61 468 75 214 34 247 47 100
41 -101 -4 -279 -31 -705 -105 -91 -15 -166 -27 -168 -26 -4 3 211 75 316 105
39 11 72 23 72 25 0 13 -105 1 -175 -20z m4834 -29 c-2 -2 -141 -40 -307 -85
-231 -62 -320 -81 -370 -81 -37 -1 -112 -5 -167 -10 -55 -5 -136 -12 -180 -16
-104 -9 -94 1 15 16 179 23 281 44 460 92 139 38 224 54 345 68 177 19 210 22
204 16z m2270 -1 c-3 -2 -97 -29 -210 -60 -172 -47 -225 -57 -339 -65 -75 -5
-229 -23 -344 -40 -115 -16 -213 -30 -219 -30 -76 0 349 86 638 130 149 22
308 46 355 54 96 15 125 18 119 11z m-5054 -45 c-11 -5 -134 -34 -272 -65
l-253 -55 -307 0 c-168 0 -304 2 -302 5 5 5 269 87 350 109 43 12 134 15 429
15 233 0 367 -4 355 -9z m-910 -6 c-5 -2 -91 -29 -189 -59 l-179 -55 -181 2
-181 3 158 23 c87 13 231 39 320 57 89 18 185 33 212 33 28 0 46 -1 40 -4z
m3055 -20 c-66 -21 -167 -40 -325 -63 -207 -30 -510 -63 -542 -59 -24 3 -25 4
-11 19 17 17 281 55 658 94 256 27 281 28 220 9z m-901 -23 c43 -24 2 -38
-209 -70 -169 -26 -235 -31 -375 -31 -155 0 -171 2 -182 18 -11 18 -5 20 90
32 56 7 176 26 267 41 180 31 362 35 409 10z m-751 -8 c-10 -2 -26 -2 -35 0
-10 3 -2 5 17 5 19 0 27 -2 18 -5z m2827 -41 l-80 -47 -255 -2 c-189 -1 -241
1 -200 8 264 46 530 86 580 88 33 1 31 -2 -45 -47z m-2907 31 c-10 -2 -28 -2
-40 0 -13 2 -5 4 17 4 22 1 32 -1 23 -4z m5147 -4 c-104 -18 -1041 -85 -1067
-77 -34 12 160 41 357 53 121 8 279 19 350 23 179 12 428 13 360 1z m-7852
-16 c-7 -2 -21 -2 -30 0 -10 3 -4 5 12 5 17 0 24 -2 18 -5z m-60 -10 c-7 -2
-21 -2 -30 0 -10 3 -4 5 12 5 17 0 24 -2 18 -5z m-66 -9 c-3 -3 -12 -4 -19 -1
-8 3 -5 6 6 6 11 1 17 -2 13 -5z m3628 -34 c-3 -5 -30 -9 -58 -9 -45 1 -48 2
-22 9 45 11 87 11 80 0z m2585 0 c-14 -4 -38 -8 -55 -8 -25 -1 -27 1 -10 8 11
5 36 8 55 8 32 0 33 -1 10 -8z m535 0 c-16 -4 -43 -8 -60 -8 -29 1 -29 1 5 8
19 4 46 7 60 8 22 0 22 -1 -5 -8z m1035 -27 c0 -5 -84 -20 -188 -35 -103 -16
-255 -39 -338 -52 -255 -41 -608 -67 -864 -64 l-225 3 735 73 c404 40 764 74
800 75 36 2 68 4 73 5 4 1 7 -1 7 -5z m-700 -19 c-22 -6 -704 -73 -708 -70 -8
8 180 36 303 46 77 6 183 14 235 19 100 9 195 11 170 5z m-6202 -9 c-3 -3 -94
-32 -203 -65 l-199 -60 -255 1 -256 1 80 18 c44 11 148 39 230 64 l150 44 229
1 c126 1 227 -1 224 -4z m681 1 c-12 -12 -295 -78 -434 -100 -138 -23 -184
-26 -335 -24 l-175 3 200 62 200 61 274 1 c151 1 272 -1 270 -3z m1379 -1 c-6
-6 -482 -77 -707 -105 -114 -14 -218 -20 -335 -19 l-171 1 105 24 c194 45 405
93 425 97 29 7 689 8 683 2z m300 -2 c-10 -2 -26 -2 -35 0 -10 3 -2 5 17 5 19
0 27 -2 18 -5z m452 -9 c-63 -16 -99 -13 -60 4 14 6 45 11 70 10 l45 0 -55
-14z m589 12 c-3 -3 -130 -16 -284 -31 -154 -14 -298 -27 -320 -30 -30 -3 -26
-1 18 11 84 21 364 52 486 53 57 0 102 -1 100 -3z m491 -16 c-8 -6 -27 -10
-41 -10 -14 0 -62 -2 -105 -5 -76 -4 -75 -3 36 14 116 18 137 18 110 1z m209
16 c-2 -2 -39 -7 -81 -11 -54 -5 -78 -3 -78 4 0 7 30 11 82 11 45 0 79 -2 77
-4z m577 -4 c-2 -4 -37 -24 -78 -44 -67 -34 -87 -39 -248 -58 -132 -16 -220
-20 -358 -18 l-184 3 47 33 46 32 292 25 c161 13 310 26 332 28 80 7 156 7
151 -1z m183 3 c-3 -2 -42 -13 -87 -23 -87 -21 -90 -20 -45 9 24 15 146 29
132 14z m176 -11 c-27 -7 -61 -13 -75 -13 -16 1 -7 6 25 14 68 18 113 17 50
-1z m448 9 c-13 -2 -35 -2 -50 0 -16 2 -5 4 22 4 28 0 40 -2 28 -4z m-3190
-10 c-7 -2 -21 -2 -30 0 -10 3 -4 5 12 5 17 0 24 -2 18 -5z m397 -1 c0 -5 -10
-14 -22 -20 -26 -12 -263 -57 -388 -72 -82 -10 -695 -24 -675 -16 10 5 194 25
730 80 383 40 355 38 355 28z m2237 -18 c-3 -3 -12 -4 -19 -1 -8 3 -5 6 6 6
11 1 17 -2 13 -5z m-1752 -33 c-6 -5 -60 -20 -121 -35 -95 -22 -132 -26 -270
-26 -93 0 -153 4 -144 9 8 5 125 18 260 30 135 12 250 24 255 26 20 7 29 5 20
-4z m1990 -23 c-109 -23 -173 -30 -290 -34 l-150 -4 74 21 c72 19 324 46 446
46 55 1 48 -2 -80 -29z m1804 28 c-2 -3 -59 -18 -126 -35 -121 -31 -124 -31
-370 -30 -136 1 -234 4 -218 6 45 7 634 60 679 62 22 0 37 -1 35 -3z m-6092
-12 c-3 -3 -12 -4 -19 -1 -8 3 -5 6 6 6 11 1 17 -2 13 -5z m2943 2 c0 -2 -18
-15 -40 -30 l-40 -26 -247 1 -248 1 85 14 c137 23 490 52 490 40z m-3065 -27
c-79 -16 -294 -36 -255 -23 26 8 273 42 310 42 20 0 -3 -8 -55 -19z m1802 -25
c-3 -3 -12 -4 -19 -1 -8 3 -5 6 6 6 11 1 17 -2 13 -5z m-1197 -54 c-41 -4
-122 -10 -180 -13 l-105 -6 70 13 c39 8 120 13 180 13 108 0 109 0 35 -7z
m1085 -5 c-22 -11 -78 -14 -215 -13 -171 0 -181 1 -135 13 31 8 114 13 215 13
148 0 162 -1 135 -13z m210 5 c-22 -4 -62 -10 -90 -14 -46 -6 -48 -5 -31 9 14
10 41 15 90 14 63 -1 66 -2 31 -9z m1007 -2 c-13 -13 -428 -23 -672 -16 -101
3 -103 3 -60 14 67 17 748 18 732 2z m126 5 c-10 -2 -26 -2 -35 0 -10 3 -2 5
17 5 19 0 27 -2 18 -5z m551 -3 c-9 -5 -36 -12 -60 -14 l-44 -6 40 14 c48 17
89 21 64 6z m231 -1 c-25 -4 -56 -7 -70 -7 l-25 0 25 8 c14 4 45 8 70 8 l45
-1 -45 -8z m503 4 c-29 -2 -77 -2 -105 0 -29 2 -6 3 52 3 58 0 81 -1 53 -3z
m1422 -8 c-74 -19 -374 -19 -399 0 -18 13 6 15 215 14 211 -1 229 -3 184 -14z
m-4680 -5 c-27 -5 -70 -8 -95 -8 l-45 1 40 7 c22 4 65 7 95 7 l55 0 -50 -7z
m-2135 -49 c-20 -12 -208 -41 -251 -40 -29 1 -27 3 16 11 64 12 215 36 235 37
13 0 13 -1 0 -8z m330 5 c0 -4 -50 -15 -139 -30 -51 -9 -29 5 31 20 54 12 108
18 108 10z m277 -2 c-11 -11 -120 -34 -161 -34 -57 0 -39 10 46 25 82 15 124
18 115 9z m1078 -3 l70 -6 -110 -13 c-113 -12 -754 -18 -742 -6 26 26 578 43
782 25z m840 -13 c-43 -10 -644 -24 -634 -14 15 16 141 24 394 24 199 0 268
-3 240 -10z m970 1 c-56 -10 -559 -24 -590 -17 -16 4 -13 7 15 15 22 7 147 11
330 11 200 -1 279 -3 245 -9z m2915 -3 c0 -8 -5 -18 -11 -21 -11 -7 -1593 5
-1586 11 16 17 215 22 855 23 640 1 742 -1 742 -13z m100 -1 c-70 -18 -70 -18
-70 0 0 12 13 15 63 14 l62 -1 -55 -13z m480 -1 c-30 -8 -102 -16 -160 -19
l-105 -5 65 19 c43 13 97 19 160 19 l95 0 -55 -14z m-6780 -59 c-41 -7 -104
-15 -140 -18 l-65 -6 85 19 c47 10 110 18 140 18 l55 -1 -75 -12z m1079 11
c-4 -4 -121 -15 -489 -46 -322 -28 -746 -89 -950 -137 -14 -3 -23 -3 -20 -1 9
10 582 160 660 173 70 12 810 22 799 11z m866 -1 c-5 -3 -158 -27 -340 -55
-181 -28 -438 -70 -570 -93 l-240 -42 -480 -5 c-418 -4 -480 -7 -480 -20 0
-13 43 -16 310 -20 300 -5 307 -5 225 -18 -62 -9 -201 -12 -510 -10 l-425 3
240 47 c360 71 573 103 850 127 451 40 595 54 710 70 102 15 194 19 425 19
162 0 291 -1 285 -3z m765 -12 c-108 -14 -549 -90 -585 -100 -33 -9 -4 13 35
27 19 7 103 30 185 50 143 36 157 38 310 38 l160 -1 -105 -14z m853 6 c-6 -6
-129 -35 -274 -65 -222 -46 -278 -54 -363 -53 l-101 1 85 19 c87 19 537 95
600 102 19 2 42 5 50 5 10 2 11 -1 3 -9z m125 4 c-10 -2 -26 -2 -35 0 -10 3
-2 5 17 5 19 0 27 -2 18 -5z m2122 -10 l145 -7 -105 -18 c-318 -54 -522 -78
-770 -88 -285 -11 -1130 -13 -1130 -2 0 12 200 86 299 109 l96 23 660 -5 c363
-3 725 -8 805 -12z m569 -23 c-148 -29 -171 -32 -167 -18 7 20 85 36 173 36
l80 0 -86 -18z m-6592 -6 c-3 -3 -12 -4 -19 -1 -8 3 -5 6 6 6 11 1 17 -2 13
-5z m2170 0 c-3 -3 -12 -4 -19 -1 -8 3 -5 6 6 6 11 1 17 -2 13 -5z m-197 -44
c-91 -20 -227 -54 -303 -74 -133 -35 -142 -36 -305 -35 l-167 2 80 15 c132 25
798 129 830 130 17 0 -44 -17 -135 -38z m365 35 c-38 -15 -614 -145 -630 -143
-11 2 39 18 110 36 264 65 580 130 520 107z m510 -21 c-71 -13 -245 -47 -386
-74 -144 -28 -282 -50 -315 -49 -33 0 -54 2 -49 5 13 5 740 132 785 137 96 11
82 3 -35 -19z m995 17 c-50 -15 -94 -21 -85 -12 11 10 46 18 85 19 l25 0 -25
-7z m2285 -16 c-27 -7 -63 -13 -80 -13 -18 0 -7 5 30 13 78 17 114 16 50 0z
m248 8 c-7 -2 -21 -2 -30 0 -10 3 -4 5 12 5 17 0 24 -2 18 -5z m-3363 -28
c-58 -13 -136 -26 -175 -29 -83 -6 -71 -3 100 29 167 30 210 30 75 0z m637 9
c-3 -3 -12 -4 -19 -1 -8 3 -5 6 6 6 11 1 17 -2 13 -5z m459 -23 c-6 -9 -84
-31 -112 -31 -33 0 -2 15 54 26 31 6 58 12 60 13 2 0 1 -3 -2 -8z m2242 -13
c-4 -10 -44 -14 -148 -15 -89 -2 -140 1 -134 7 8 8 66 13 222 18 47 1 63 -1
60 -10z m-3624 -27 c-14 -13 -245 -53 -279 -49 -18 2 30 15 125 34 85 17 157
29 159 27 3 -2 0 -7 -5 -12z m231 -32 c-22 -4 -89 -10 -150 -13 -106 -5 -108
-5 -60 8 28 8 95 14 150 14 79 0 91 -2 60 -9z m450 -5 c-27 -8 -75 -13 -105
-12 l-55 3 65 11 c36 6 83 12 105 12 l40 0 -50 -14z m510 1 c-22 -10 -77 -14
-205 -14 -159 1 -171 2 -135 14 27 9 95 13 205 13 148 0 162 -1 135 -13z m420
5 c-60 -4 -164 -10 -230 -13 -107 -5 -117 -4 -90 8 23 11 79 14 230 13 184 -1
191 -1 90 -8z m1280 -5 c-32 -8 -113 -13 -220 -13 l-170 1 85 12 c47 7 146 12
220 12 129 1 133 0 85 -12z m620 3 c-17 -6 -134 -12 -265 -14 -212 -2 -230 -1
-180 11 70 16 492 19 445 3z m770 -3 c-30 -10 -119 -13 -345 -13 -270 0 -299
2 -250 13 38 9 146 13 345 13 254 0 285 -2 250 -13z m355 9 c-25 -6 -225 -22
-229 -18 -10 10 76 22 154 22 50 0 83 -2 75 -4z m-2467 -21 c-23 -2 -64 -2
-90 0 -26 2 -7 3 42 3 50 0 71 -1 48 -3z m-3543 -58 c-26 -10 -102 -13 -310
-13 -247 1 -269 2 -215 13 39 8 148 13 310 13 220 0 246 -1 215 -13z m175 6
c-11 -4 -33 -11 -50 -14 l-30 -6 30 14 c17 8 39 14 50 14 l20 0 -20 -8z m420
-1 c-16 -4 -39 -8 -50 -8 l-20 -1 20 9 c11 5 34 8 50 8 l30 0 -30 -8z m240 -1
c-22 -4 -49 -8 -60 -7 -16 0 -15 2 5 8 14 4 41 8 60 8 l35 0 -40 -9z m930 -5
c-31 -8 -95 -13 -170 -13 l-120 2 60 12 c33 7 110 13 170 13 l110 0 -50 -14z
m595 1 c-23 -9 -83 -14 -180 -14 -131 0 -143 1 -120 14 19 11 63 14 180 14
141 0 152 -2 120 -14z m680 0 c-58 -7 -215 -13 -350 -13 -216 0 -241 1 -215
13 24 11 98 14 350 13 309 -1 316 -1 215 -13z m870 0 c-46 -10 -148 -14 -350
-13 -269 1 -280 2 -195 13 51 7 203 13 350 13 243 0 256 -1 195 -13z m570 -1
c-41 -8 -131 -13 -245 -12 -167 0 -176 1 -130 13 33 9 118 13 245 13 189 0
193 -1 130 -14z m373 9 c-24 -2 -62 -2 -85 0 -24 2 -5 4 42 4 47 0 66 -2 43
-4z m460 -20 c-13 -2 -33 -2 -45 0 -13 2 -3 4 22 4 25 0 35 -2 23 -4z m-6403
-42 c-37 -21 -219 -31 -550 -31 -194 0 -350 3 -347 6 3 4 32 12 64 19 67 15
858 20 833 6z m914 0 c-23 -23 -146 -31 -468 -31 -186 0 -337 3 -334 6 4 3 42
12 85 19 92 15 733 21 717 6z m323 3 c-3 -3 -12 -4 -19 -1 -8 3 -5 6 6 6 11 1
17 -2 13 -5z m860 -1 c-13 -12 -142 -32 -211 -33 -38 0 -67 3 -64 6 6 6 194
31 247 33 19 0 31 -2 28 -6z m443 -2 c-31 -18 -273 -41 -257 -25 3 4 32 12 64
19 67 15 216 19 193 6z m735 0 c-11 -19 -113 -32 -225 -29 l-115 3 50 17 c55
18 301 26 290 9z m340 0 c-11 -5 -54 -11 -95 -15 -41 -3 -100 -9 -130 -12 -61
-7 -61 7 0 24 42 12 254 14 225 3z m1062 3 c-3 -3 -50 -12 -104 -20 -96 -13
-814 -21 -801 -9 3 3 61 12 129 19 123 14 788 22 776 10z m1258 -3 c-13 -12
-307 -31 -460 -30 -131 0 -131 13 0 28 98 12 471 13 460 2z m-3190 -16 c-40
-13 -103 -20 -93 -10 7 7 86 23 113 23 11 0 2 -6 -20 -13z m-1177 -2 c-10 -2
-26 -2 -35 0 -10 3 -2 5 17 5 19 0 27 -2 18 -5z m-75 -10 c-7 -2 -19 -2 -25 0
-7 3 -2 5 12 5 14 0 19 -2 13 -5z m4655 1 c-6 -5 -210 -44 -232 -44 -6 0 -1 6
10 14 23 17 237 46 222 30z m-313 -44 c-29 -19 -47 -20 -430 -19 -501 1 -492
19 15 28 190 4 368 8 395 9 l50 2 -30 -20z m-4057 5 c-13 -13 -266 -55 -393
-65 -77 -6 -259 -22 -404 -36 -145 -14 -268 -23 -274 -21 -20 6 200 47 388 72
105 14 235 31 290 39 96 13 404 22 393 11z m352 -4 c-14 -5 -48 -11 -75 -14
l-50 -6 45 14 c25 7 59 13 75 13 29 0 29 0 5 -7z m425 -6 c-21 -10 -70 -14
-165 -13 l-135 0 65 13 c36 7 110 13 165 13 93 0 98 -1 70 -13z m445 5 c-25
-5 -101 -11 -170 -14 -117 -5 -122 -5 -80 8 28 9 91 14 170 14 94 0 114 -2 80
-8z m1180 -2 c-21 -7 -223 -12 -515 -13 -423 -3 -468 -2 -380 9 128 17 949 19
895 4z m710 0 c-14 -6 -103 -12 -205 -14 -180 -2 -180 -2 -95 10 110 17 336
20 300 4z m-4237 -18 c-21 -8 -371 -35 -588 -44 l-100 -4 85 9 c93 11 534 46
590 47 30 1 32 -1 13 -8z m4872 -39 c-18 -16 -310 -55 -639 -86 -143 -13 -656
-22 -645 -11 2 3 112 24 244 48 l240 43 395 5 c217 3 399 7 405 8 6 1 6 -1 0
-7z m-3177 -6 c-7 -7 -674 -82 -808 -91 -52 -4 -92 -4 -89 0 4 4 121 27 260
51 236 40 267 43 448 44 107 1 192 -1 189 -4z m392 -46 l-145 -49 -195 2 -195
3 75 24 c82 26 404 68 530 69 l75 0 -145 -49z m890 45 c-42 -10 -845 -95 -873
-92 -26 2 -5 12 103 50 l135 46 325 0 c179 0 318 -2 310 -4z m905 1 c-5 -3
-134 -25 -286 -50 -235 -38 -295 -45 -410 -44 -74 0 -128 3 -122 6 7 2 118 24
245 48 218 40 244 43 408 43 96 0 171 -1 165 -3z m-605 -11 c-8 -2 -111 -21
-228 -44 -190 -36 -230 -40 -364 -40 -83 0 -149 2 -147 5 3 2 149 20 325 40
175 19 326 37 334 39 8 2 33 4 55 4 22 0 33 -2 25 -4z m-3495 -14 c-16 -5
-115 -21 -220 -36 -156 -22 -237 -27 -450 -31 -164 -2 -254 0 -245 6 23 14
702 68 875 69 55 0 64 -2 40 -8z m5212 4 c-3 -3 -12 -4 -19 -1 -8 3 -5 6 6 6
11 1 17 -2 13 -5z m-4140 -10 c-3 -3 -12 -4 -19 -1 -8 3 -5 6 6 6 11 1 17 -2
13 -5z m4102 1 c-3 -2 -61 -18 -129 -35 -101 -24 -144 -30 -225 -29 l-100 2
65 10 c36 5 128 20 205 32 144 23 192 28 184 20z m-4142 -11 c-3 -3 -12 -4
-19 -1 -8 3 -5 6 6 6 11 1 17 -2 13 -5z m-307 -26 c-57 -15 -116 -21 -240 -23
-91 -2 -158 -2 -149 1 24 7 368 41 419 42 43 0 42 -1 -30 -20z m263 15 c-7 -2
-19 -2 -25 0 -7 3 -2 5 12 5 14 0 19 -2 13 -5z m-46 -9 c-3 -3 -12 -4 -19 -1
-8 3 -5 6 6 6 11 1 17 -2 13 -5z m-1767 -73 c-21 -11 -185 -29 -385 -41 -93
-5 -195 -12 -225 -15 -83 -7 -37 11 100 40 100 20 142 24 320 24 113 0 198 -3
190 -8z m308 -8 c-10 -2 -26 -2 -35 0 -10 3 -2 5 17 5 19 0 27 -2 18 -5z m812
-19 c-61 -13 -203 -32 -340 -44 -129 -11 -280 -25 -334 -30 -55 -6 -101 -8
-103 -6 -7 6 174 64 267 85 72 16 125 19 350 19 l265 0 -105 -24z m965 1 c-63
-20 -134 -29 -335 -45 -140 -11 -300 -19 -355 -19 l-100 1 75 20 c120 32 433
65 625 66 l170 1 -80 -24z m715 14 c-71 -14 -417 -23 -405 -11 17 18 45 20
250 20 142 0 187 -3 155 -9z m820 -1 c-37 -11 -629 -24 -619 -14 15 16 146 24
389 24 195 0 256 -3 230 -10z m425 1 c-49 -11 -302 -24 -294 -16 13 16 94 25
209 25 95 0 115 -2 85 -9z m485 1 c-111 -13 -315 -23 -308 -15 15 16 86 23
228 22 117 0 132 -1 80 -7z m995 -5 c-35 -9 -146 -13 -374 -14 -178 -1 -322 2
-319 5 13 13 193 21 458 21 251 1 279 -1 235 -12z m290 0 c-33 -16 -165 -21
-149 -6 14 14 43 19 114 19 63 0 64 0 35 -13z m710 4 c-33 -5 -190 -11 -350
-14 -263 -6 -288 -5 -271 9 17 14 65 16 350 15 221 -1 311 -5 271 -10z m855
-5 c-63 -8 -162 -13 -220 -11 -95 2 -102 3 -70 14 22 7 105 11 220 11 l185 -1
-115 -13z m-7147 -1 c-7 -2 -21 -2 -30 0 -10 3 -4 5 12 5 17 0 24 -2 18 -5z
m2022 -8 c-22 -8 -49 -13 -60 -13 -11 0 0 6 25 13 59 17 87 17 35 0z m-2035
-29 c0 -7 -97 -33 -185 -49 -91 -18 -418 -30 -409 -16 3 5 21 9 40 9 19 0 77
5 127 11 51 6 162 18 247 28 85 10 161 19 168 20 6 0 12 -1 12 -3z m2150 -22
c-66 -13 -198 -19 -187 -8 7 8 136 21 202 21 l50 1 -65 -14z m905 0 c-42 -9
-135 -13 -310 -13 -221 0 -246 2 -215 14 26 10 103 13 310 13 254 0 271 -1
215 -14z m335 0 c-41 -7 -102 -13 -135 -12 l-60 0 55 13 c30 7 91 13 135 13
l80 -1 -75 -13z m315 0 c-44 -8 -93 -13 -110 -11 -18 1 -1 7 45 13 108 16 159
14 65 -2z m1370 1 c-31 -11 -162 -13 -600 -13 -490 1 -547 2 -460 13 66 8 271
12 600 13 427 0 494 -2 460 -13z m380 0 c-21 -10 -69 -14 -155 -14 -120 1
-123 2 -80 14 25 7 95 13 155 13 101 0 108 -1 80 -13z m215 5 c-83 -12 -128
-12 -110 0 8 5 49 9 90 8 l75 -1 -55 -7z m420 -6 c-41 -7 -104 -12 -140 -12
-58 1 -54 2 45 13 145 16 188 16 95 -1z m395 1 c-22 -8 -76 -13 -120 -13 l-80
1 80 12 c44 7 98 13 120 13 l40 0 -40 -13z m370 0 c-27 -7 -99 -13 -160 -13
-107 0 -109 0 -65 13 26 7 95 13 160 13 113 0 114 -1 65 -13z m-7432 -2 c-7
-2 -19 -2 -25 0 -7 3 -2 5 12 5 14 0 19 -2 13 -5z m1542 -3 c-11 -5 -47 -8
-80 -8 l-60 1 50 7 c28 4 64 7 80 8 25 0 27 -1 10 -8z m1440 0 c-11 -5 -36 -8
-55 -8 l-35 1 35 7 c19 4 44 8 55 8 l20 1 -20 -9z m3875 -121 c-111 -25 -233
-39 -218 -23 17 16 201 53 268 52 l75 0 -125 -29z m-221 17 c-2 -2 -41 -13
-86 -25 -76 -19 -107 -21 -395 -20 -199 1 -300 4 -278 10 37 9 302 28 460 32
197 6 303 7 299 3z m-6194 -32 c-38 -7 -92 -13 -120 -12 l-50 0 40 13 c22 8
76 13 120 13 l80 0 -70 -14z m580 0 c-47 -13 -194 -20 -183 -9 8 8 118 23 178
23 l55 0 -50 -14z m710 0 c-48 -9 -155 -13 -335 -12 -233 0 -260 2 -225 13 30
10 117 13 335 13 274 0 290 -1 225 -14z m694 12 c-2 -2 -85 -6 -184 -9 -99 -3
-164 -2 -145 3 35 7 337 13 329 6z m1171 -11 c-40 -10 -130 -14 -335 -14 -154
0 -275 3 -270 5 35 14 163 22 395 22 244 0 261 -1 210 -13z m1130 0 c-75 -9
-271 -13 -565 -13 -386 0 -444 2 -410 13 31 11 156 13 565 13 478 -1 515 -2
410 -13z m885 0 c-31 -8 -115 -13 -225 -13 -158 0 -171 1 -135 13 28 9 98 13
225 13 170 0 181 -1 135 -13z m-5560 -5 c-11 -5 -29 -9 -40 -9 l-20 0 20 9
c11 5 29 9 40 9 l20 0 -20 -9z m5008 -7 c-7 -2 -21 -2 -30 0 -10 3 -4 5 12 5
17 0 24 -2 18 -5z m-4916 -39 c-6 -7 -146 -35 -162 -33 -14 2 125 37 149 38
11 1 17 -2 13 -5z m673 1 c0 -6 -62 -23 -169 -45 -71 -15 -130 -20 -250 -19
l-156 1 130 24 c72 13 148 28 170 33 41 9 275 15 275 6z m398 0 c-2 -3 -76
-12 -164 -20 -87 -8 -172 -17 -188 -20 -55 -10 -17 8 56 26 67 16 310 28 296
14z m932 -4 c-15 -9 -459 -52 -515 -50 -25 1 -20 5 30 21 41 15 100 23 190 28
200 10 312 11 295 1z m1238 4 c-3 -4 -59 -19 -124 -35 l-119 -30 -535 1 c-294
1 -519 5 -500 9 19 4 150 17 290 29 140 12 271 23 290 24 60 6 704 7 698 2z
m950 0 c-2 -3 -79 -18 -171 -35 -165 -30 -169 -30 -514 -29 l-348 1 130 33
130 34 389 0 c214 1 387 -1 384 -4z m552 -4 c-8 -4 -64 -20 -125 -35 -104 -25
-121 -27 -325 -24 l-215 3 165 27 c218 36 204 35 370 36 82 1 138 -2 130 -7z
m348 4 c-6 -7 -360 -56 -365 -51 -12 12 211 55 286 55 46 1 82 -1 79 -4z
m1067 -4 c-12 -10 -142 -37 -248 -51 -43 -5 -210 -10 -370 -9 l-292 1 100 34
100 33 359 1 c199 0 356 -4 351 -9z m1545 -1 c-8 -5 -24 -10 -34 -10 -11 0
-67 -11 -125 -25 l-106 -25 -565 2 -565 3 130 27 c72 15 144 29 160 31 71 9
1119 6 1105 -3z m-2520 -40 c-38 -13 -83 -19 -145 -18 l-90 1 115 17 c156 24
192 24 120 0z m-3860 -10 c-14 -4 -41 -8 -60 -8 l-35 1 35 7 c19 4 46 8 60 8
l25 0 -25 -8z m-1647 -87 c-13 -2 -33 -2 -45 0 -13 2 -3 4 22 4 25 0 35 -2 23
-4z m687 -3 c-48 -12 -322 -41 -327 -36 -3 3 12 8 33 12 22 4 66 13 99 20 68
14 256 18 195 4z m675 4 c-5 -2 -99 -31 -209 -64 l-198 -60 -331 0 c-182 0
-328 2 -326 4 11 12 482 78 679 96 124 11 241 21 260 23 51 5 137 6 125 1z
m100 -40 c-115 -24 -217 -42 -225 -41 -8 1 46 21 120 44 115 35 148 41 225 41
l90 0 -210 -44z m1555 42 c0 -2 -84 -25 -187 -49 l-188 -46 -310 -10 c-170 -6
-485 -13 -700 -16 l-390 -5 310 65 310 64 578 0 c317 1 577 -1 577 -3z m775
-1 c-5 -2 -86 -19 -180 -38 -165 -34 -178 -35 -470 -41 l-300 -5 165 43 165
44 315 0 c173 0 311 -1 305 -3z m545 -25 c-137 -23 -205 -28 -402 -32 -131 -3
-236 -3 -235 -1 2 2 66 16 143 32 133 28 151 29 399 29 l260 0 -165 -28z m870
26 c0 -2 -38 -15 -84 -30 -82 -25 -90 -26 -352 -25 -292 1 -293 1 -99 44 54
12 535 22 535 11z m509 0 c-2 -2 -65 -16 -140 -30 -107 -20 -166 -26 -275 -26
l-139 1 85 28 c81 28 93 29 279 30 107 1 192 -1 190 -3z m291 -22 c-52 -13
-120 -26 -150 -29 -37 -3 -14 5 70 24 69 16 136 29 150 29 14 0 -18 -11 -70
-24z m1420 15 c-43 -18 -842 -66 -895 -55 -11 3 -128 5 -260 6 l-240 2 120 28
120 28 590 0 c411 1 582 -2 565 -9z m268 4 c-15 -2 -42 -2 -60 0 -18 2 -6 4
27 4 33 0 48 -2 33 -4z m-3858 -105 c-43 -12 -448 -23 -437 -12 9 10 186 21
352 21 95 1 113 -1 85 -9z m305 -4 c-27 -8 -77 -13 -110 -12 l-60 3 65 11 c36
6 85 12 110 12 l45 0 -50 -14z m725 1 c-27 -10 -105 -13 -325 -13 -254 0 -285
2 -250 13 29 10 116 13 325 13 250 0 281 -1 250 -13z m290 -1 c-36 -8 -96 -13
-135 -12 -68 3 -69 3 -35 15 19 6 80 11 135 11 l100 0 -65 -14z m480 5 c-14
-6 -54 -12 -90 -14 l-65 -4 50 13 c28 8 68 14 90 14 37 1 38 0 15 -9z m330 0
c-117 -10 -203 -10 -170 1 14 4 77 8 140 7 l115 0 -85 -8z m1032 -1 c-10 -10
-95 -13 -350 -14 l-337 -1 170 12 c245 17 533 19 517 3z m563 -9 c-52 -10
-468 -10 -435 1 14 4 126 8 250 8 145 0 211 -3 185 -9z m-4387 -6 c-32 -2 -86
-2 -120 0 -35 2 -9 3 57 3 66 0 94 -1 63 -3z m-2380 -48 c-2 -3 -38 -11 -79
-20 -66 -13 -673 -37 -864 -34 -59 1 -58 1 65 29 125 28 126 28 504 29 209 1
377 -1 374 -4z m357 -10 c-44 -8 -123 -13 -175 -13 l-95 0 55 13 c30 7 109 13
175 13 l120 0 -80 -13z m754 11 c-2 -2 -110 -6 -239 -8 -129 -3 -221 -2 -205
2 29 8 452 13 444 6z m299 -31 c-3 -3 -47 -17 -99 -32 l-94 -26 -595 -7 c-327
-3 -596 -6 -597 -5 -2 1 61 11 140 23 118 18 220 23 607 32 256 6 483 12 505
14 81 5 138 6 133 1z m641 1 c-2 -2 -72 -18 -155 -35 -138 -29 -166 -31 -349
-31 -109 0 -196 3 -192 6 3 3 54 19 114 34 103 27 119 28 347 29 132 1 237 -1
235 -3z m231 -26 c-183 -32 -319 -47 -307 -34 4 4 62 20 130 35 91 20 150 27
232 27 l110 0 -165 -28z m620 -6 c-125 -34 -125 -34 -349 -34 -123 0 -221 3
-218 7 4 3 82 18 174 33 136 23 201 28 343 28 l175 0 -125 -34z m853 21 c-77
-24 -315 -46 -563 -52 -135 -3 -242 -2 -238 2 4 4 53 20 110 35 l103 29 315
-1 c276 0 310 -2 273 -13z m386 11 c-11 -10 -314 -66 -356 -65 -75 1 -28 14
147 42 150 24 218 31 209 23z m181 -27 c-111 -27 -282 -50 -268 -34 13 14 263
63 323 63 l60 0 -115 -29z m1477 20 c-20 -5 -90 -16 -155 -24 -64 -9 -148 -20
-187 -25 -78 -10 -1112 -14 -1102 -4 3 4 59 19 124 35 l118 27 620 0 c383 0
606 -3 582 -9z m-5839 -39 c-15 -4 -51 -10 -80 -14 l-53 -5 40 14 c22 7 58 13
80 13 36 0 37 -1 13 -8z m1060 -55 c-2 -3 -55 -16 -116 -30 l-111 -25 -613 1
c-664 2 -692 7 -208 38 263 17 1062 29 1048 16z m550 0 c-2 -3 -60 -16 -128
-30 -105 -21 -148 -25 -299 -24 l-176 1 105 28 c98 26 119 28 304 29 110 1
197 -1 194 -4z m217 -5 c-16 -4 -41 -8 -55 -8 l-25 0 25 8 c14 4 39 8 55 8
l30 0 -30 -8z m852 3 c-9 -9 -512 -41 -737 -48 l-185 -5 165 29 c155 27 184
28 464 30 165 0 296 -2 293 -6z m753 -24 l-85 -28 -354 -1 c-195 0 -352 2
-350 4 2 3 119 12 259 21 140 10 298 21 350 25 52 4 133 7 180 8 l85 0 -85
-29z m269 26 c-8 -7 -152 -36 -157 -31 -7 8 90 35 127 35 19 1 32 -1 30 -4z
m330 1 c-16 -17 -238 -56 -311 -55 l-83 1 125 28 c105 23 284 41 269 26z
m1096 -1 c-5 -3 -95 -14 -200 -26 -156 -18 -259 -23 -570 -25 -209 -2 -375 -1
-370 1 6 3 57 16 115 29 103 24 113 24 570 24 256 0 461 -1 455 -3z m2119 -14
c-12 -12 -213 -30 -403 -36 -313 -10 -1453 -13 -1444 -4 4 4 49 17 98 28 87
20 115 20 922 18 457 -1 829 -4 827 -6z m-6682 -92 c-4 -3 -65 -18 -137 -33
l-130 -26 -584 0 c-321 0 -582 2 -579 5 14 14 182 49 263 54 117 8 1176 8
1167 0z m518 0 c0 -7 -25 -10 -305 -39 -270 -28 -323 -24 -145 13 74 15 149
28 165 30 61 5 285 2 285 -4z m1200 1 c0 -3 -55 -18 -122 -33 -121 -27 -129
-28 -442 -27 -176 0 -317 2 -314 5 10 10 278 47 393 53 139 8 485 9 485 2z
m712 -1 c-25 -21 -781 -76 -761 -55 6 7 185 52 229 58 45 6 539 3 532 -3z
m578 1 c0 -3 -60 -18 -132 -34 -103 -21 -153 -27 -223 -24 l-90 3 75 24 c41
14 100 27 130 30 72 8 240 8 240 1z m988 -2 c-13 -3 -117 -18 -233 -33 -192
-23 -236 -25 -515 -23 l-305 3 100 24 c55 14 136 27 180 30 114 8 800 8 773
-1z m468 3 c-10 -15 -118 -30 -215 -30 -52 0 -91 3 -87 7 18 17 312 40 302 23z
m1552 4 c-2 -3 -63 -12 -134 -20 -101 -12 -258 -15 -738 -15 -368 0 -606 4
-600 9 25 25 136 29 788 30 379 1 687 -1 684 -4z m-5243 -35 c-89 -18 -172
-29 -229 -29 -49 -1 -87 1 -85 4 3 2 66 11 140 20 73 8 157 19 184 24 124 22
116 7 -10 -19z m1710 -12 c-10 -6 -53 -13 -95 -15 -89 -4 -83 3 15 16 100 12
103 12 80 -1z m-2047 -54 c-4 -3 -116 -32 -250 -64 l-243 -58 -290 -7 c-159
-4 -287 -4 -284 -1 5 6 554 90 834 129 48 6 239 8 233 1z m859 0 c-13 -14
-206 -47 -491 -85 -277 -37 -313 -39 -500 -37 l-201 3 205 48 c113 26 234 54
270 61 48 11 153 15 394 15 181 1 327 -2 323 -5z m998 -2 c-6 -5 -91 -34 -191
-65 l-181 -57 -499 2 -499 3 120 23 c114 21 296 42 665 77 91 8 181 17 200 18
76 8 393 6 385 -1z m270 -2 c-26 -12 -436 -102 -441 -97 -2 2 69 27 159 55
131 41 175 51 232 51 49 0 64 -3 50 -9z m703 5 c-3 -3 -187 -33 -409 -65 -330
-49 -426 -60 -524 -59 l-120 1 280 63 280 64 249 0 c137 1 247 -1 244 -4z
m872 -4 c-8 -5 -99 -34 -201 -65 l-186 -56 -314 1 c-285 1 -309 2 -259 15 71
17 408 80 525 98 98 15 460 21 435 7z m1250 -3 c-14 -6 -146 -14 -300 -19
-221 -6 -356 -17 -684 -53 -225 -25 -435 -46 -465 -45 l-56 1 40 13 c22 7 114
36 205 63 l165 51 560 0 c407 0 553 -3 535 -11z m760 -14 c-121 -16 -191 -15
-85 1 44 7 103 12 130 12 37 0 25 -3 -45 -13z m-2980 -55 c-208 -43 -247 -49
-340 -47 l-105 3 310 46 c171 26 324 47 340 47 17 0 -76 -22 -205 -49z m-3475
36 c-23 -9 -377 -57 -381 -52 -5 5 131 31 246 46 66 9 153 12 135 6z m6282 -1
c-3 -3 -12 -4 -19 -1 -8 3 -5 6 6 6 11 1 17 -2 13 -5z m-1104 -31 c-7 -2 -21
-2 -30 0 -10 3 -4 5 12 5 17 0 24 -2 18 -5z m-5796 -29 c-3 -3 -12 -4 -19 -1
-8 3 -5 6 6 6 11 1 17 -2 13 -5z m220 0 c-3 -3 -12 -4 -19 -1 -8 3 -5 6 6 6
11 1 17 -2 13 -5z m-317 -20 c-63 -13 -188 -19 -178 -9 7 7 142 22 198 23 43
0 42 -1 -20 -14z m6163 -1 c-13 -2 -33 -2 -45 0 -13 2 -3 4 22 4 25 0 35 -2
23 -4z m-5423 -52 c-20 -11 -110 -28 -249 -46 -107 -14 -672 -23 -660 -10 6 5
446 40 674 54 196 11 253 12 235 2z m418 4 c-7 -7 -459 -66 -472 -62 -6 2 43
16 109 31 66 15 125 29 130 31 16 6 239 6 233 0z m372 -4 c-8 -5 -66 -20 -128
-35 -94 -22 -135 -26 -245 -25 -72 1 -123 4 -112 6 37 10 420 61 460 62 27 0
35 -2 25 -8z m1250 0 c-8 -5 -58 -21 -110 -35 l-95 -26 -549 0 c-302 0 -547 3
-543 6 3 4 61 19 129 34 l123 29 530 0 c306 0 524 -3 515 -8z m358 4 c-8 -8
-277 -47 -290 -43 -21 7 176 46 236 47 33 1 57 -1 54 -4z m579 -1 c-3 -4 -79
-22 -169 -40 -157 -32 -171 -33 -383 -33 -121 0 -215 2 -210 5 6 2 114 19 240
38 178 27 264 35 379 35 82 1 147 -2 143 -5z m768 -5 c-70 -12 -847 -71 -882
-67 -15 2 49 19 147 40 l175 36 305 0 c201 0 288 -4 255 -9z m630 5 c-16 -6
-513 -64 -542 -63 -60 2 64 31 212 49 130 16 359 26 330 14z m648 -1 c-7 -2
-19 -2 -25 0 -7 3 -2 5 12 5 14 0 19 -2 13 -5z m-2936 -49 c-3 -3 -12 -4 -19
-1 -8 3 -5 6 6 6 11 1 17 -2 13 -5z m1633 1 c0 -2 -17 -8 -37 -14 -47 -11
-320 -24 -310 -15 4 4 71 13 150 19 180 15 197 16 197 10z m-3312 -50 c-3 -3
-53 -19 -110 -36 l-105 -29 -334 2 c-374 3 -373 -1 -4 48 123 17 567 28 553
15z m1217 -4 c-6 -5 -59 -19 -120 -32 -106 -23 -127 -24 -640 -27 -291 -1
-527 -1 -524 2 2 2 56 18 119 35 l115 30 530 1 c306 0 525 -4 520 -9z m-2015
-8 c-58 -10 -295 -40 -299 -37 -7 6 77 24 154 32 81 10 191 13 145 5z m610
-133 c-110 -11 -200 -11 -175 0 11 5 72 8 135 8 112 -1 113 -1 40 -8z m1065
-5 c-18 -9 -62 -14 -110 -13 l-80 0 50 13 c28 7 77 13 110 13 59 0 59 0 30
-13z m390 3 c-16 -5 -93 -12 -170 -14 -128 -4 -137 -3 -105 10 24 10 76 14
170 14 104 0 128 -2 105 -10z m-840 -8 c-16 -4 -75 -7 -130 -7 l-100 1 75 6
c41 4 100 7 130 7 44 1 49 -1 25 -7z m-295 -51 c0 -17 -194 -29 -465 -29 -240
1 -296 3 -280 13 27 16 745 32 745 16z m545 -12 c-20 -12 -316 -25 -304 -13
14 14 94 24 204 25 98 0 116 -2 100 -12z m185 4 c-16 -9 -100 -22 -100 -15 0
6 63 22 90 23 19 0 21 -2 10 -8z m-1610 -11 c-14 -4 -63 -8 -110 -7 -74 0 -79
1 -35 7 74 10 176 10 145 0z m495 -49 c-41 -17 -230 -31 -412 -31 -183 0 -212
6 -133 28 42 12 574 14 545 3z m754 5 c-6 -6 -186 -23 -326 -31 -122 -7 -151
5 -55 22 56 10 390 17 381 9z m429 -93 c-15 -2 -42 -2 -60 0 -18 2 -6 4 27 4
33 0 48 -2 33 -4z m-1919 -78 c-4 -3 -190 -28 -458 -60 -62 -7 -44 5 52 37 74
24 97 26 246 27 90 1 162 -1 160 -4z m966 -10 c-23 -11 -97 -14 -335 -14 -267
1 -300 3 -265 14 29 10 118 13 335 13 258 0 291 -1 265 -13z m280 9 c-37 -7
-175 -20 -175 -17 0 12 56 22 120 21 41 0 66 -2 55 -4z m1090 -5 c-126 -8
-903 -20 -865 -13 85 15 251 21 590 21 257 0 348 -3 275 -8z m-2115 -39 c0
-18 -7 -20 -67 -20 -78 0 -76 8 4 25 32 7 59 13 61 14 1 1 2 -8 2 -19z m-550
-62 c-14 -6 -92 -12 -175 -14 l-150 -2 85 12 c111 17 276 20 240 4z m253 5
c-7 -2 -19 -2 -25 0 -7 3 -2 5 12 5 14 0 19 -2 13 -5z m752 -6 c-14 -8 -92
-12 -265 -13 l-245 -2 150 13 c213 17 386 18 360 2z m1510 -2 c-31 -11 -154
-13 -555 -13 -466 1 -503 2 -390 13 74 7 300 12 555 12 369 1 424 -1 390 -12z
m-345 -61 c-8 -2 -150 -23 -315 -46 l-300 -41 -450 -3 -450 -3 140 49 140 48
625 0 c344 0 618 -2 610 -4z m-1480 -38 c0 -2 -36 -16 -79 -31 -62 -20 -94
-25 -152 -23 l-74 3 140 26 c155 29 165 31 165 25z m1310 -33 c-25 -8 -83 -17
-130 -18 -92 -4 -81 1 50 20 113 17 134 16 80 -2z m-1595 -62 c-6 -5 -46 -20
-90 -35 -77 -25 -89 -26 -290 -25 -235 1 -236 -1 35 48 109 20 362 29 345 12z
m752 3 c-3 -3 -104 -19 -224 -35 -173 -22 -255 -28 -398 -28 l-180 1 95 33 95
33 309 1 c170 1 307 -2 303 -5z m583 -3 c-8 -4 -64 -20 -125 -35 -106 -26
-119 -27 -355 -24 l-245 3 220 28 c121 15 229 30 240 31 47 7 279 5 265 -3z
m1135 0 c-6 -5 -73 -19 -150 -30 -118 -16 -213 -21 -595 -25 -250 -3 -449 -3
-441 0 7 4 63 19 125 35 l111 28 480 0 c293 1 475 -3 470 -8z m95 -81 c-51
-11 -296 -23 -286 -13 4 4 67 11 139 14 189 8 187 8 147 -1z m-2610 -19 c-8
-5 -46 -11 -85 -15 -38 -4 -86 -9 -105 -13 -51 -8 -33 4 31 21 58 16 185 21
159 7z m1885 4 c-5 -2 -80 -13 -165 -25 -171 -23 -573 -82 -1129 -165 -201
-30 -367 -53 -369 -50 -3 3 -1 5 4 5 5 0 221 54 479 120 l470 119 360 0 c198
0 356 -2 350 -4z m266 -11 c-24 -7 -85 -16 -135 -18 l-91 -5 110 18 c136 22
177 24 116 5z m-248 -31 c-7 -2 -19 -2 -25 0 -7 3 -2 5 12 5 14 0 19 -2 13 -5z
m6 -37 c-2 -2 -173 -52 -379 -112 l-375 -109 -370 -3 c-203 -2 -367 -1 -365 2
6 5 314 60 620 110 393 65 887 128 869 112z m-1316 -153 c-7 -2 -19 -2 -25 0
-7 3 -2 5 12 5 14 0 19 -2 13 -5z m-218 -39 c-99 -18 -202 -33 -230 -31 -37 1
4 10 150 33 263 42 306 41 80 -2z m-428 -75 c-10 -6 -59 -12 -110 -15 -51 -2
-87 -2 -81 1 41 21 225 34 191 14z m653 0 c-30 -4 -161 -10 -290 -13 -212 -5
-229 -4 -175 8 41 10 132 14 290 14 150 -1 211 -3 175 -9z m-82 -65 c-4 -3
-96 -19 -205 -35 -176 -26 -223 -29 -418 -28 -284 2 -231 11 240 42 198 14
366 25 374 26 8 0 12 -2 9 -5z m622 -6 c-14 -6 -107 -12 -210 -14 -173 -3
-181 -2 -125 11 76 16 373 19 335 3z m468 7 c-8 -9 -300 -65 -337 -65 -56 0
-26 16 84 44 64 16 129 25 179 25 44 1 77 -1 74 -4z m792 -6 c-191 -36 -370
-52 -615 -57 -143 -2 -257 -1 -253 3 4 4 65 20 135 35 126 28 134 28 453 28
207 0 309 -3 280 -9z m-1740 -44 c11 -13 2 -15 -75 -15 -92 0 -105 9 -32 21
70 11 94 10 107 -6z m99 -49 c-6 -6 -278 -70 -429 -101 -125 -25 -126 -25
-565 -23 l-440 3 363 49 c200 26 398 54 440 61 70 12 642 22 631 11z m386 -2
c-20 -7 -249 -53 -252 -50 -7 7 185 54 222 54 22 0 36 -1 30 -4z m555 0 c-48
-12 -819 -114 -858 -113 -33 0 31 18 218 59 l265 58 195 0 c107 0 188 -2 180
-4z m345 -14 c-321 -52 -534 -79 -655 -84 l-135 -5 90 15 c267 44 640 92 720
92 l90 0 -110 -18z m-1186 -4 c-13 -13 -388 -106 -417 -104 -24 2 33 19 179
54 210 50 247 58 238 50z m1741 -96 c-14 -4 -59 -8 -100 -8 -54 0 -67 2 -45 8
42 11 178 11 145 0z m-422 -7 c-42 -2 -114 -2 -160 0 -46 1 -11 3 77 3 88 0
125 -2 83 -3z m-1213 -54 c-203 -36 -1174 -179 -1195 -177 -14 2 63 25 170 51
263 65 756 135 945 135 106 0 121 -2 80 -9z m995 0 c-100 -20 -1422 -149
-1620 -158 -263 -13 -255 -11 275 69 220 33 454 69 520 79 102 16 176 19 495
19 245 0 359 -3 330 -9z m135 -65 l-210 -54 -160 3 -160 2 205 38 c190 35 417
64 500 65 19 0 -59 -24 -175 -54z m-2050 15 c-86 -17 -219 -34 -183 -23 32 10
223 42 248 42 14 0 -15 -9 -65 -19z m-208 -35 c-3 -3 -12 -4 -19 -1 -8 3 -5 6
6 6 11 1 17 -2 13 -5z m1593 -20 c-76 -16 -321 -37 -377 -32 -39 3 330 45 402
45 34 1 30 -1 -25 -13z m-565 -90 c-49 -7 -139 -17 -200 -23 -136 -13 -663
-35 -690 -29 -30 6 389 50 555 58 80 4 208 7 285 7 l140 0 -90 -13z m-1005
-24 c-30 -5 -71 -8 -90 -8 l-35 1 40 7 c22 4 63 7 90 7 l50 0 -55 -7z m-137
-17 c-7 -2 -21 -2 -30 0 -10 3 -4 5 12 5 17 0 24 -2 18 -5z m214 -19 c-3 -3
-12 -4 -19 -1 -8 3 -5 6 6 6 11 1 17 -2 13 -5z m1632 -144 c-15 -8 -200 -17
-544 -26 -154 -4 -205 -2 -193 6 10 6 43 14 75 18 77 9 680 11 662 2z m861
-21 c-235 -34 -635 -78 -795 -88 -251 -16 -501 -24 -494 -17 4 4 65 16 135 26
71 11 192 30 269 44 104 18 213 27 425 36 157 6 294 13 305 14 11 2 79 3 150
3 l130 1 -125 -19z m2854 -29 c-16 -16 -210 -40 -319 -39 -123 0 -101 12 55
28 63 7 122 14 130 16 41 8 143 4 134 -5z m-3949 -5 c-5 -2 -109 -18 -230 -36
-180 -26 -262 -33 -450 -36 -126 -3 -227 -2 -224 1 3 4 46 19 95 33 85 26 102
27 399 33 171 3 335 6 365 7 30 1 51 0 45 -2z m2790 -16 c-16 -6 -77 -12 -135
-14 l-105 -4 100 13 c55 7 116 13 135 14 l35 0 -30 -9z m555 0 c-25 -4 -94 -7
-155 -6 l-110 1 85 6 c47 3 117 7 155 7 65 0 67 0 25 -8z m783 -6 c-7 -2 -21
-2 -30 0 -10 3 -4 5 12 5 17 0 24 -2 18 -5z m-2395 -10 c-16 -2 -40 -2 -55 0
-16 2 -3 4 27 4 30 0 43 -2 28 -4z m2325 0 c-7 -2 -19 -2 -25 0 -7 3 -2 5 12
5 14 0 19 -2 13 -5z m-3158 -73 c-152 -27 -175 -29 -450 -28 -287 0 -289 1
-195 14 133 20 476 41 655 42 l150 0 -160 -28z m815 14 c-47 -7 -98 -12 -115
-12 -43 1 112 25 160 25 24 0 5 -5 -45 -13z m1000 -10 c-166 -25 -271 -37
-255 -29 43 21 232 53 315 53 l95 0 -155 -24z m665 21 c-5 -2 -100 -15 -210
-30 -138 -18 -234 -25 -310 -23 l-110 3 195 26 c121 17 242 27 320 27 69 0
121 -1 115 -3z m344 0 c-11 -11 -348 -56 -399 -53 -43 2 -15 9 135 29 186 26
273 34 264 24z m721 -6 c-63 -4 -146 -10 -185 -12 -69 -5 -69 -5 -30 8 26 9
89 13 185 13 l145 -1 -115 -8z m-2033 -5 c-3 -3 -12 -4 -19 -1 -8 3 -5 6 6 6
11 1 17 -2 13 -5z m1634 -5 c-44 -18 -193 -39 -265 -38 -65 1 -57 3 89 24 188
26 211 28 176 14z m-1756 -20 c-64 -12 -131 -18 -230 -17 l-140 1 175 17 c96
9 200 17 230 17 53 1 53 0 -35 -18z m-3145 -5 c-41 -7 -129 -13 -195 -12 -115
0 -118 0 -75 13 28 8 101 13 195 13 l150 -1 -75 -13z m460 5 c-47 -4 -112 -7
-145 -7 -60 1 -60 1 -15 8 25 4 90 7 145 7 l100 0 -85 -8z m1948 4 c-10 -2
-26 -2 -35 0 -10 3 -2 5 17 5 19 0 27 -2 18 -5z m-80 -10 c-10 -2 -28 -2 -40
0 -13 2 -5 4 17 4 22 1 32 -1 23 -4z m-80 -10 c-10 -2 -26 -2 -35 0 -10 3 -2
5 17 5 19 0 27 -2 18 -5z m-2498 -83 c-76 -12 -381 -40 -405 -39 -52 4 291 47
370 47 84 0 87 -1 35 -8z m1345 0 c-16 -5 -122 -20 -235 -34 -194 -24 -233
-26 -664 -26 -253 0 -457 2 -455 5 7 7 194 33 344 49 148 15 1062 20 1010 6z
m1534 6 c-3 -3 -78 -19 -168 -35 l-163 -31 -431 1 c-465 1 -468 3 -137 43 169
21 241 24 549 25 195 1 352 -1 350 -3z m630 0 c-7 -7 -305 -45 -399 -51 -114
-7 -90 2 82 30 124 20 330 33 317 21z m338 -2 c-3 -3 -12 -4 -19 -1 -8 3 -5 6
6 6 11 1 17 -2 13 -5z m591 1 c-2 -3 -87 -19 -187 -35 -127 -21 -213 -30 -289
-29 -59 0 -101 3 -94 6 37 15 391 61 476 62 55 1 97 -1 94 -4z m2121 0 c-3 -2
-94 -18 -202 -35 l-197 -30 -787 2 -788 3 125 31 125 32 864 1 c475 0 862 -1
860 -4z m-1970 -19 c-7 -7 -182 -46 -186 -42 -5 5 45 21 112 35 44 10 81 13
74 7z m-5374 -37 c-22 -4 -60 -7 -85 -7 l-45 1 45 7 c25 4 63 7 85 7 l40 1
-40 -9z m4378 -6 c-7 -2 -21 -2 -30 0 -10 3 -4 5 12 5 17 0 24 -2 18 -5z
m-3039 -43 c-49 -19 -234 -29 -639 -34 -438 -5 -451 -4 -245 29 97 15 921 20
884 5z m1724 5 c-2 -3 -144 -14 -314 -25 -170 -11 -381 -25 -469 -31 -191 -12
-663 -70 -1086 -133 -270 -41 -325 -46 -465 -45 -210 1 -161 15 101 28 302 16
618 62 1330 196 50 9 188 13 489 14 231 1 417 -1 414 -4z m1017 -5 c-16 -5
-203 -34 -415 -65 -212 -30 -477 -69 -588 -86 -112 -16 -208 -29 -214 -27 -5
2 79 25 189 50 177 42 535 104 735 127 99 11 333 12 293 1z m510 0 c-53 -22
-979 -162 -1260 -190 -290 -29 -521 -45 -500 -35 6 2 258 41 560 85 303 44
638 94 745 110 261 39 241 37 365 38 69 0 102 -3 90 -8z m340 1 c-39 -35 -711
-205 -875 -221 -93 -9 -698 -14 -689 -6 2 3 69 11 149 20 80 8 339 47 575 86
356 58 583 95 765 123 49 8 84 7 75 -2z m1753 3 c-17 -16 -353 -56 -663 -79
-366 -27 -1026 -76 -1325 -99 -96 -7 -176 -12 -178 -11 -9 8 272 92 468 139
l225 55 739 0 c407 1 737 -2 734 -5z m530 -4 c-35 -11 -155 -24 -147 -16 7 7
104 24 144 24 l30 0 -27 -8z m-408 -26 c-36 -7 -76 -13 -90 -12 -30 1 95 26
130 26 14 0 -4 -6 -40 -14z m-3481 2 c-9 -9 -170 -37 -539 -96 -212 -33 -401
-63 -420 -66 -19 -4 -33 -4 -30 -1 7 7 457 89 720 131 203 32 279 41 269 32z
m-1582 -22 c-3 -3 -12 -4 -19 -1 -8 3 -5 6 6 6 11 1 17 -2 13 -5z m-54 -11
c-7 -2 -19 -2 -25 0 -7 3 -2 5 12 5 14 0 19 -2 13 -5z m1115 2 c-2 -3 -257
-43 -565 -90 l-560 -85 -253 0 c-139 0 -251 2 -249 5 6 5 165 28 509 74 362
48 404 52 743 76 381 26 382 26 375 20z m-1175 -12 c-7 -2 -19 -2 -25 0 -7 3
-2 5 12 5 14 0 19 -2 13 -5z m-763 -14 c-25 -4 -238 -7 -475 -6 -312 1 -378 3
-240 7 298 9 766 9 715 -1z m707 5 c-3 -3 -12 -4 -19 -1 -8 3 -5 6 6 6 11 1
17 -2 13 -5z m4858 -14 c-11 -5 -183 -38 -383 -75 -253 -45 -387 -65 -444 -65
-45 0 -79 2 -77 5 12 12 799 135 914 143 6 0 1 -3 -10 -8z m-545 -36 c-8 -2
-151 -27 -318 -54 l-302 -50 -378 1 c-450 2 -438 4 323 59 308 22 569 42 580
44 28 5 113 5 95 0z m-3290 -75 c-70 -17 -140 -28 -180 -28 -85 1 -70 6 102
34 192 30 217 29 78 -6z m3397 -15 c-3 -3 -12 -4 -19 -1 -8 3 -5 6 6 6 11 1
17 -2 13 -5z m-3729 -49 c-14 -14 -863 -124 -874 -113 -2 3 62 15 143 27 82
12 243 37 358 56 182 29 389 46 373 30z m1181 0 c-3 -2 -117 -14 -255 -24
-137 -11 -419 -34 -627 -51 -443 -35 -468 -36 -377 -10 39 11 192 31 380 49
173 17 331 32 350 34 54 6 534 8 529 2z m701 -4 c-8 -5 -146 -54 -306 -109
-280 -96 -295 -100 -420 -111 -71 -7 -140 -14 -154 -17 -61 -14 1 13 113 48
301 95 483 145 692 191 38 9 91 7 75 -2z m889 4 c-11 -10 -974 -165 -1119
-179 -166 -17 -196 -19 -189 -11 3 2 131 47 285 100 l279 95 374 0 c206 0 372
-2 370 -5z m439 0 c-30 -30 -2013 -314 -2035 -291 -3 3 26 14 63 25 45 13 152
28 304 41 176 16 385 46 830 120 327 54 609 101 625 103 46 6 219 8 213 2z
m1661 0 c-6 -5 -17 -6 -1009 -70 -878 -57 -867 -56 -855 -51 27 13 592 109
675 116 104 8 1196 13 1189 5z m-7196 -12 c-7 -2 -19 -2 -25 0 -7 3 -2 5 12 5
14 0 19 -2 13 -5z m3907 -5 c-19 -6 -89 -26 -155 -45 -66 -19 -235 -71 -375
-115 -186 -59 -278 -83 -340 -89 -47 -4 -231 -22 -410 -38 -179 -17 -398 -42
-485 -56 -143 -22 -187 -25 -425 -24 -146 1 -299 4 -340 8 l-75 6 355 107 355
106 215 16 c118 9 267 21 330 26 63 6 291 24 505 41 215 17 487 39 605 49 118
9 229 18 245 18 30 0 30 0 -5 -10z m3180 -43 c-264 -78 -352 -95 -695 -129
-547 -56 -1116 -100 -1825 -141 -239 -14 -466 -28 -505 -31 -38 -3 -68 -4 -65
0 10 9 868 156 1000 171 153 17 304 28 800 60 618 40 853 55 1055 69 105 8
210 14 235 14 l45 1 -45 -14z m-5747 -32 c-7 -2 -19 -2 -25 0 -7 3 -2 5 12 5
14 0 19 -2 13 -5z m743 -1 c-3 -5 -29 -14 -58 -20 -63 -15 -550 -65 -581 -60
-24 3 313 51 508 72 66 7 124 14 128 15 5 0 6 -3 3 -7z m-801 -7 c-37 -14
-729 -113 -977 -141 -305 -33 -151 -6 379 67 489 68 630 86 598 74z m-612 -42
c-7 -2 -21 -2 -30 0 -10 3 -4 5 12 5 17 0 24 -2 18 -5z m4344 1 c-3 -3 -12 -4
-19 -1 -8 3 -5 6 6 6 11 1 17 -2 13 -5z m-54 -11 c-7 -2 -19 -2 -25 0 -7 3 -2
5 12 5 14 0 19 -2 13 -5z m-3550 -30 c-7 -2 -21 -2 -30 0 -10 3 -4 5 12 5 17
0 24 -2 18 -5z m385 2 c-3 -3 -144 -47 -314 -99 l-309 -94 -570 6 -570 6 145
18 c80 10 462 49 850 88 388 39 712 72 720 74 24 6 54 6 48 1z m4895 -42 c-7
-2 -19 -2 -25 0 -7 3 -2 5 12 5 14 0 19 -2 13 -5z m226 3 c-2 -2 -168 -49
-369 -105 -253 -70 -414 -108 -524 -126 -87 -14 -170 -28 -185 -32 -14 -3 -23
-3 -20 0 3 4 108 39 235 78 185 57 287 82 534 129 310 58 337 63 329 56z
m-6156 -13 c-7 -2 -19 -2 -25 0 -7 3 -2 5 12 5 14 0 19 -2 13 -5z m5727 2 c0
-5 -147 -52 -204 -65 -22 -5 -176 -34 -341 -64 -165 -30 -408 -82 -540 -115
-239 -59 -241 -59 -495 -76 -175 -11 -359 -15 -585 -13 l-330 3 400 58 c220
33 533 79 695 103 768 114 931 135 1145 153 127 10 236 19 243 20 6 0 12 -1
12 -4z m-5830 -16 c-25 -4 -58 -7 -75 -7 -25 1 -24 2 10 8 22 4 56 7 75 7 31
0 30 0 -10 -8z m-537 -16 c-7 -2 -21 -2 -30 0 -10 3 -4 5 12 5 17 0 24 -2 18
-5z m415 0 c-10 -2 -28 -2 -40 0 -13 2 -5 4 17 4 22 1 32 -1 23 -4z m-85 -10
c-7 -2 -21 -2 -30 0 -10 3 -4 5 12 5 17 0 24 -2 18 -5z m2987 3 c0 -14 -143
-47 -245 -56 -66 -6 -140 -13 -165 -15 -43 -5 -42 -4 25 20 75 28 385 68 385
51z m779 0 c-6 -6 -277 -61 -443 -91 -131 -23 -612 -62 -623 -51 -2 2 24 11
59 20 141 37 1031 144 1007 122z m1214 -43 c-7 -2 -19 -2 -25 0 -7 3 -2 5 12
5 14 0 19 -2 13 -5z m-2558 -28 c-87 -28 -244 -45 -490 -50 -207 -5 -216 5
-22 25 290 30 486 48 532 48 l50 0 -70 -23z m2400 4 c-66 -10 -442 -66 -835
-124 l-715 -105 -320 1 -320 1 325 73 325 74 255 16 c140 8 404 24 585 35 542
33 669 41 685 44 8 2 42 4 75 4 52 0 43 -3 -60 -19z m674 -63 c-2 -2 -79 -27
-171 -55 -145 -44 -182 -52 -275 -56 l-108 -5 100 26 c169 44 469 104 454 90z
m-4299 -23 c51 -6 41 -8 -150 -40 -168 -27 -242 -34 -410 -39 -126 -3 -199 -1
-190 4 15 10 212 70 263 81 35 7 412 3 487 -6z m1374 7 c-28 -11 -311 -25
-301 -14 7 7 156 19 277 22 33 0 40 -1 24 -8z m-885 -14 c-6 -7 -568 -68 -587
-64 -39 8 378 66 482 67 60 0 107 -1 105 -3z m452 -7 c-27 -11 -313 -32 -357
-27 -37 4 231 35 316 36 51 1 60 -1 41 -9z m654 -14 c-15 -6 -365 -65 -379
-64 -32 2 139 52 199 59 75 8 197 11 180 5z m3423 -12 c-10 -2 -26 -2 -35 0
-10 3 -2 5 17 5 19 0 27 -2 18 -5z m-3843 -23 c-181 -71 -225 -81 -359 -78
l-128 3 117 39 c114 38 196 50 375 54 l45 1 -50 -19z m3780 15 c-14 -6 -438
-62 -510 -69 l-60 -5 70 15 c145 30 551 78 500 59z m-4290 -61 l-99 -34 -451
1 c-422 1 -443 2 -335 14 63 7 270 21 460 30 190 10 347 19 349 21 2 2 43 4
90 3 l86 -1 -100 -34z m730 -4 c-66 -16 -145 -29 -175 -29 -45 1 -29 6 95 29
195 36 231 36 80 0z m-2100 -11 c-16 -6 -84 -12 -150 -14 -112 -4 -117 -4 -80
9 25 9 81 14 150 14 84 0 103 -2 80 -9z m4388 -16 c-7 -2 -19 -2 -25 0 -7 3
-2 5 12 5 14 0 19 -2 13 -5z m-3253 -47 c0 -2 -28 -15 -62 -28 l-63 -23 -753
-5 c-413 -3 -752 -2 -752 1 0 3 66 14 148 23 81 9 176 21 212 25 65 8 1270 15
1270 7z m239 0 c-5 -6 -179 -36 -199 -35 -8 0 8 9 35 19 42 16 177 29 164 16z
m301 -22 c-52 -13 -117 -26 -145 -29 -49 -5 -49 -5 30 24 59 22 97 29 145 29
l65 0 -95 -24z m825 21 c-5 -2 -62 -14 -125 -26 -93 -18 -167 -23 -393 -28
-152 -3 -277 -4 -277 -1 0 3 51 17 113 32 107 25 125 26 402 26 160 0 286 -1
280 -3z m420 -5 c-44 -4 -134 -10 -200 -13 -117 -5 -118 -5 -60 8 34 7 121 13
200 13 127 -1 133 -1 60 -8z m950 -11 c-133 -43 -225 -49 -700 -48 -269 1
-434 5 -410 10 69 14 801 56 990 57 l180 0 -60 -19z m1505 5 c-149 -37 -419
-69 -398 -48 9 8 366 62 413 62 39 0 39 0 -15 -14z m445 11 c-11 -5 -329 -50
-420 -61 -90 -10 -58 7 68 37 89 21 138 27 237 27 69 0 121 -1 115 -3z m690
-6 c-41 -12 -196 -39 -220 -38 -40 2 152 47 200 47 45 0 47 -1 20 -9z m-375
-26 c-73 -19 -130 -26 -245 -30 -82 -3 -147 -2 -143 2 6 6 406 53 458 53 14 0
-18 -11 -70 -25z m-1900 5 c-28 -11 -182 -38 -219 -38 -51 0 -6 14 97 30 131
21 157 23 122 8z m-2818 -10 c-6 -6 -37 -13 -69 -14 l-58 -3 65 13 c36 7 67
14 70 15 2 0 -1 -4 -8 -11z m-872 -111 c-46 -14 -1499 -22 -1485 -8 6 5 19 11
30 14 11 3 351 5 755 5 535 0 725 -3 700 -11z m530 2 c-19 -5 -91 -12 -160
-14 -115 -5 -123 -4 -95 10 22 10 66 14 160 14 99 -1 122 -3 95 -10z m560 -5
c-74 -13 -429 -20 -417 -8 16 16 89 22 282 22 205 -1 208 -1 135 -14z m1520 0
c-100 -19 -1363 -16 -1290 2 32 8 243 12 705 12 591 0 652 -2 585 -14z m427
10 c-3 -3 -12 -4 -19 -1 -8 3 -5 6 6 6 11 1 17 -2 13 -5z m988 -5 c-48 -11
-393 -24 -384 -15 12 13 135 23 279 24 109 0 135 -3 105 -9z m300 0 c-22 -4
-51 -8 -65 -7 -23 0 -22 1 5 8 17 4 46 8 65 8 l35 0 -40 -9z m610 -9 c-73 -14
-151 -19 -289 -19 -104 -1 -186 2 -183 6 18 17 172 30 362 31 l210 0 -100 -18z
m430 4 c-88 -16 -114 -16 -55 1 25 7 63 13 85 13 32 0 26 -3 -30 -14z m386 0
c-46 -14 -308 -40 -317 -31 -3 3 28 10 68 17 40 7 91 16 113 20 22 4 72 8 110
8 l70 0 -44 -14z m-1533 -11 c-10 -2 -26 -2 -35 0 -10 3 -2 5 17 5 19 0 27 -2
18 -5z m-4220 -38 c-13 -14 -398 -116 -470 -125 -97 -12 -345 -12 -332 -1 5 5
160 34 344 65 184 31 342 58 350 60 24 6 114 6 108 1z m147 -16 c-114 -23
-146 -23 -75 1 30 10 80 18 110 18 54 0 54 -1 -35 -19z m660 16 c-17 -7 -416
-73 -475 -79 -51 -6 -47 -3 65 38 l120 44 150 0 c83 0 146 -1 140 -3z m1430
-5 c-38 -4 -212 -10 -385 -14 -173 -3 -472 -11 -665 -17 -192 -6 -361 -9 -375
-7 -14 2 29 13 95 25 114 20 153 21 760 20 352 0 609 -3 570 -7z m1033 5 c-6
-6 -230 -68 -288 -80 -69 -14 -21 6 86 36 134 38 213 55 202 44z m341 1 c-2
-2 -67 -11 -144 -20 -77 -10 -149 -20 -160 -23 -11 -3 -17 -2 -14 1 19 20 142
45 228 45 52 1 92 -1 90 -3z m319 -1 c-9 -9 -754 -118 -885 -130 -112 -10 -88
11 30 25 56 7 264 34 462 60 387 51 401 53 393 45z m640 -11 c-13 -13 -478
-74 -668 -89 -410 -30 -412 -29 -50 34 327 57 340 59 529 60 107 1 192 -2 189
-5z m-4323 -45 c-97 -35 -129 -42 -273 -55 -90 -8 -173 -14 -185 -12 -19 3
512 105 553 106 8 1 -34 -17 -95 -39z m5025 -21 c-152 -38 -219 -50 -305 -55
-77 -4 -107 -2 -100 5 21 22 454 100 555 100 33 0 -7 -13 -150 -50z m529 48
c-5 -5 -454 -92 -524 -101 -92 -13 -35 9 148 56 153 40 198 47 281 48 55 1 97
-1 95 -3z m-2850 -10 c-16 -14 -275 -79 -346 -86 -111 -12 -280 -13 -267 -1
19 17 106 33 334 61 238 28 287 33 279 26z m2038 -12 c-3 -3 -12 -4 -19 -1 -8
3 -5 6 6 6 11 1 17 -2 13 -5z m873 -15 c-59 -21 -264 -60 -308 -58 -25 1 316
77 348 77 8 0 -10 -8 -40 -19z m-3970 5 c-8 -2 -107 -18 -220 -36 l-205 -32
-575 -3 c-711 -4 -747 16 -85 48 381 18 1127 34 1085 23z m3059 2 c-9 -8 -308
-66 -374 -72 -129 -12 -55 11 138 42 185 31 245 38 236 30z m-559 -46 c-91
-22 -325 -37 -270 -17 19 7 200 24 260 24 l45 1 -35 -8z m-5565 -100 c-55 -10
-190 -22 -184 -15 9 9 112 23 169 23 53 0 54 0 15 -8z m802 4 c-7 -8 -192 -34
-241 -34 -50 0 -37 15 24 28 49 11 227 16 217 6z m1138 -5 c-40 -8 -581 -28
-789 -29 -110 0 -127 8 -56 28 21 6 210 10 460 10 261 0 410 -4 385 -9z m1104
7 c-2 -2 -78 -6 -169 -9 -91 -3 -151 -2 -135 3 29 7 312 14 304 6z m1380 -1
c-3 -2 -36 -9 -75 -14 -105 -15 -767 -81 -800 -80 -25 1 -24 3 16 15 85 27
326 60 570 77 77 6 294 7 289 2z m519 0 c-3 -3 -133 -26 -289 -51 -242 -38
-301 -44 -404 -42 l-120 3 320 47 c276 40 511 60 493 43z m500 0 c-6 -7 -218
-51 -361 -75 -90 -15 -160 -20 -285 -19 l-167 1 170 29 c325 55 421 67 534 68
63 1 112 -1 109 -4z m-3065 -12 c-7 -2 -19 -2 -25 0 -7 3 -2 5 12 5 14 0 19
-2 13 -5z m3506 3 c-6 -6 -151 -24 -244 -30 l-80 -6 65 19 c57 17 273 30 259
17z m640 -20 c-3 -3 -115 -41 -251 -86 l-246 -80 -369 2 -368 3 275 48 c456
79 553 91 944 116 11 0 17 -1 15 -3z m-3120 -11 c-3 -2 -76 -16 -162 -30 -110
-18 -191 -25 -274 -24 l-118 1 85 15 c192 32 486 56 469 38z m-554 -10 c-5 -2
-76 -13 -156 -25 -109 -15 -193 -20 -335 -19 -188 1 -189 1 -124 15 36 8 108
18 160 23 94 8 474 13 455 6z m-786 -9 c-8 -8 -247 -38 -276 -34 -33 4 161 35
231 37 27 0 47 -1 45 -3z m-1854 -16 c-11 -5 -38 -8 -60 -8 -34 0 -36 1 -15 8
14 4 41 8 60 8 28 1 31 -1 15 -8z m538 3 c-24 -2 -62 -2 -85 0 -24 2 -5 4 42
4 47 0 66 -2 43 -4z m4702 -39 c-120 -34 -378 -84 -427 -83 -49 0 -43 3 92 40
136 37 251 56 345 57 l40 0 -50 -14z m-505 -49 c-124 -34 -127 -34 -340 -33
l-215 0 175 14 c96 8 234 22 305 33 195 29 218 24 75 -14z m-5110 4 c-132 -23
-167 -22 -75 1 39 10 95 18 125 18 49 0 43 -3 -50 -19z m657 -10 l-89 -29
-236 2 -237 3 95 22 c132 31 122 30 350 31 l205 0 -88 -29z m263 11 c-80 -10
-147 -17 -149 -15 -2 2 19 10 45 19 30 9 87 14 149 14 l100 0 -145 -18z m740
14 c-70 -17 -391 -54 -464 -53 -88 1 -84 2 124 29 176 23 399 39 340 24z m560
-20 c-85 -13 -211 -25 -280 -28 l-125 -5 135 29 c115 24 157 28 280 28 l145
-1 -155 -23z m590 -5 c-91 -15 -187 -28 -215 -27 -42 0 -28 5 80 28 84 18 160
28 215 28 l85 0 -165 -29z m765 1 c-88 -16 -176 -29 -195 -28 -61 0 73 36 175
46 172 18 180 10 20 -18z m585 3 c-101 -20 -163 -25 -325 -28 -215 -4 -214 -1
19 34 79 13 174 19 276 19 l155 0 -125 -25z m-1750 -19 c-36 -7 -85 -13 -110
-12 -37 1 -31 3 35 13 107 17 157 16 75 -1z m-750 -4 c-14 -4 -41 -8 -60 -8
l-35 1 40 7 c57 10 87 10 55 0z m1590 0 c-8 -5 -26 -9 -40 -9 -23 1 -23 2 5 9
43 11 52 11 35 0z m-3065 -55 c-5 -2 -91 -13 -190 -25 -99 -11 -193 -23 -210
-26 -57 -12 -16 8 67 31 68 19 107 24 213 23 72 0 126 -1 120 -3z m770 -1
c-31 -12 -606 -94 -644 -92 l-46 3 85 28 c109 37 318 65 485 65 72 0 126 -1
120 -4z m404 2 c-3 -3 -101 -24 -219 -46 -171 -34 -245 -43 -365 -47 -82 -3
-148 -3 -145 0 3 3 113 21 245 41 132 20 265 40 295 45 58 9 196 14 189 7z
m226 -7 c-51 -10 -92 -10 -50 1 17 4 44 8 60 8 25 0 24 -2 -10 -9z m463 6 c-2
-3 -144 -25 -314 -50 -215 -31 -338 -45 -404 -44 -117 2 -123 1 255 53 271 38
479 56 463 41z m801 1 c-10 -11 -292 -76 -369 -86 -47 -6 -164 -10 -260 -8
l-175 3 232 38 c127 21 260 42 295 46 67 9 284 14 277 7z m196 -11 c-22 -6
-69 -15 -105 -18 l-65 -6 65 19 c36 10 83 18 105 18 l40 0 -40 -13z m1690 -16
c-204 -66 -241 -69 -818 -68 -287 1 -513 4 -502 6 11 3 130 25 265 48 l245 43
450 0 450 0 -90 -29z m1220 -5 l-99 -34 -336 -11 c-184 -5 -396 -9 -470 -7
l-135 3 160 42 160 41 410 0 410 0 -100 -34z m554 32 c-2 -2 -62 -15 -134 -29
-118 -23 -397 -46 -382 -31 3 3 45 19 94 34 82 27 100 29 257 29 93 1 167 -1
165 -3z m430 -1 c-8 -7 -235 -33 -339 -38 -104 -6 -103 -2 10 23 68 16 342 28
329 15z m479 0 c-6 -6 -795 -212 -916 -239 -83 -19 -288 -32 -237 -16 17 5
203 48 415 95 212 47 459 103 550 124 165 39 198 46 188 36z m-3923 -30 c-5
-3 -97 -18 -203 -35 -135 -21 -220 -30 -280 -28 l-87 3 55 17 c63 19 561 60
515 43z m-3295 -43 c-23 -10 -70 -16 -135 -18 -112 -3 -105 0 40 20 129 18
137 17 95 -2z m6769 14 c-5 -5 -586 -133 -794 -175 -143 -29 -161 -31 -390
-30 -132 0 -235 3 -228 5 12 5 1365 202 1397 203 11 1 17 -1 15 -3z m-2189
-22 c-25 -8 -58 -13 -75 -11 -24 2 -20 5 25 14 77 15 103 14 50 -3z m1728 1
c-6 -6 -560 -86 -565 -82 -9 10 317 71 407 77 157 10 164 10 158 5z m-469 -19
c-7 -7 -490 -108 -495 -104 -6 6 273 90 326 98 49 8 176 12 169 6z m-330 -10
c-2 -2 -110 -37 -239 -77 l-235 -74 -465 -2 c-272 -2 -459 1 -450 6 8 5 110
36 225 69 l210 61 400 9 c569 13 559 12 554 8z m-4594 -27 c-16 -5 -160 -25
-320 -44 -159 -19 -308 -37 -330 -40 -21 -3 -37 -4 -34 -1 4 4 318 66 449 89
14 2 79 4 145 5 86 0 111 -3 90 -9z m1003 5 c-7 -7 -244 -42 -605 -89 -254
-34 -494 -54 -482 -42 3 4 169 33 370 66 200 33 375 62 389 64 39 7 334 8 328
1z m562 1 c0 -22 -382 -103 -620 -130 -179 -20 249 90 500 128 38 6 120 8 120
2z m155 -5 c-11 -5 -31 -8 -45 -8 l-25 0 25 8 c14 4 34 8 45 8 l20 1 -20 -9z
m1352 4 c-3 -3 -52 -12 -109 -20 -57 -8 -249 -36 -428 -61 l-325 -46 -445 -4
c-244 -3 -442 -2 -439 1 5 5 614 115 714 129 47 6 1039 8 1032 1z m403 -3
c-24 -13 -439 -131 -463 -131 -12 0 -17 4 -11 8 8 8 243 82 374 118 53 15 123
18 100 5z m-4237 -8 c-7 -2 -21 -2 -30 0 -10 3 -4 5 12 5 17 0 24 -2 18 -5z
m3935 -18 c-2 -3 -79 -28 -169 -55 l-164 -50 -195 1 c-107 1 -186 4 -175 7 14
4 541 80 699 101 5 0 7 -1 4 -4z m-2555 -72 c-7 -2 -19 -2 -25 0 -7 3 -2 5 12
5 14 0 19 -2 13 -5z m-108 -19 c-74 -14 -122 -17 -113 -9 6 7 114 23 153 23
17 0 -1 -6 -40 -14z m245 -4 c-14 -4 -34 -8 -45 -8 l-20 -1 20 9 c11 5 31 8
45 8 l25 0 -25 -8z m-1790 -50 c-30 -5 -71 -8 -90 -8 -32 0 -33 1 -10 8 14 4
54 8 90 8 l65 -1 -55 -7z m1230 6 c0 -2 -28 -9 -63 -15 -83 -14 -334 -26 -324
-15 15 16 387 44 387 30z m360 -5 c-37 -22 -275 -43 -256 -23 4 4 37 12 74 18
83 14 203 17 182 5z m1278 -1 c-83 -25 -738 -44 -738 -22 0 23 95 29 420 30
196 0 333 -3 318 -8z m852 -8 c-30 -14 -84 -17 -375 -20 -187 -2 -336 0 -332
5 19 19 190 30 457 31 272 0 283 0 250 -16z m220 13 c0 -4 -35 -14 -102 -29
-42 -10 -33 9 10 21 40 11 92 16 92 8z m930 -5 c-85 -21 -263 -30 -556 -30
-173 0 -314 4 -314 9 0 22 109 29 495 29 243 0 396 -3 375 -8z m817 0 c-78
-23 -614 -44 -593 -23 21 22 129 31 366 31 154 0 244 -3 227 -8z m334 -1 c-13
-5 -65 -11 -115 -14 l-91 -4 70 13 c87 17 173 20 136 5z m514 0 c-16 -6 -86
-12 -155 -14 -118 -4 -123 -4 -80 9 27 8 90 14 155 14 85 0 103 -2 80 -9z
m328 4 c-7 -2 -21 -2 -30 0 -10 3 -4 5 12 5 17 0 24 -2 18 -5z m-6193 -74
c-25 -5 -148 -11 -275 -14 -207 -4 -225 -3 -180 10 35 9 116 13 275 13 158 0
212 -3 180 -9z m600 -1 c-19 -5 -120 -11 -225 -13 -188 -3 -189 -3 -100 9 110
16 379 19 325 4z m535 -3 c-22 -8 -80 -13 -130 -13 l-90 1 60 12 c33 7 92 13
130 13 l70 0 -40 -13z m545 4 c-25 -5 -137 -11 -250 -14 -184 -4 -201 -4 -165
9 29 10 96 14 250 14 147 0 197 -3 165 -9z m-2290 -69 c-30 -4 -82 -10 -115
-13 l-60 -5 40 13 c22 7 74 13 115 13 l75 0 -55 -8z m720 -2 c-25 -5 -155 -10
-290 -13 -229 -3 -240 -3 -160 9 99 15 524 19 450 4z m765 -4 c-35 -10 -104
-13 -235 -12 l-185 1 80 12 c44 7 150 13 235 13 149 0 153 0 105 -14z m243 9
c-10 -2 -28 -2 -40 0 -13 2 -5 4 17 4 22 1 32 -1 23 -4z m867 -7 l170 -13
-445 -1 c-245 0 -438 2 -430 4 95 24 446 29 705 10z m-1428 -52 c-7 -7 -821
-104 -862 -102 -27 1 -27 1 -5 5 14 2 147 26 295 53 242 43 286 48 424 49 85
1 152 -2 148 -5z m1713 -5 l135 -1 -75 -24 c-41 -13 -140 -42 -219 -64 l-144
-40 -966 1 c-560 1 -945 5 -916 10 28 5 121 18 209 29 87 11 231 34 320 50
259 48 293 49 926 45 327 -3 656 -5 730 -6z m-2525 -45 c-5 -2 -119 -22 -252
-44 -167 -28 -269 -40 -330 -39 -48 1 -79 4 -68 6 27 7 603 81 635 81 14 0 21
-1 15 -4z m-88 -60 c-3 -3 -12 -4 -19 -1 -8 3 -5 6 6 6 11 1 17 -2 13 -5z
m2157 -63 c-30 -28 -140 -31 -1336 -31 -672 0 -1218 3 -1214 7 4 4 78 13 164
19 192 14 2401 19 2386 5z m141 -71 c-27 -5 -63 -8 -80 -8 -29 0 -29 0 -5 8
14 4 50 8 80 8 l55 -1 -50 -7z m-670 -66 c-34 -13 -555 -94 -602 -93 -32 0
-52 3 -44 6 19 8 590 91 626 91 17 0 26 -1 20 -4z m134 -38 c-16 -15 -195 -57
-231 -54 l-43 3 60 19 c82 25 232 48 214 32z m-900 -90 c-15 -16 -274 -46
-382 -45 l-122 2 150 22 c129 19 367 33 354 21z m318 -2 c-12 -13 -123 -34
-176 -34 -30 0 -52 2 -49 5 6 6 164 33 202 34 16 1 27 -2 23 -5z m273 -3 c-8
-5 -55 -11 -105 -14 -86 -6 -88 -5 -50 8 44 15 180 20 155 6z m208 2 c-10 -2
-28 -2 -40 0 -13 2 -5 4 17 4 22 1 32 -1 23 -4z m591 3 c-3 -3 -164 -31 -359
-62 -279 -45 -390 -58 -518 -63 -89 -3 -162 -4 -162 -1 0 3 48 20 108 39 90
28 132 35 262 43 85 5 207 18 270 28 102 16 411 28 399 16z m398 -2 c-4 -4
-66 -27 -139 -52 l-133 -45 -280 -8 c-154 -4 -281 -6 -283 -5 -1 2 64 14 145
26 81 13 238 38 348 55 183 30 358 44 342 29z m-1368 -59 c-3 -2 -56 -20 -118
-40 -94 -29 -127 -35 -203 -35 -50 0 -89 3 -86 6 16 16 194 57 273 64 133 10
139 10 134 5z m-364 -14 c-6 -4 -57 -20 -115 -35 -83 -20 -130 -26 -219 -26
-63 0 -112 3 -108 6 15 15 184 46 292 53 66 4 129 9 140 9 11 1 15 -2 10 -7z
m-685 -33 c-105 -19 -492 -38 -478 -23 17 18 261 43 418 43 l165 0 -105 -20z
m1380 -59 c-47 -4 -110 -7 -140 -7 -49 1 -51 1 -20 8 19 4 82 7 140 7 l105 0
-85 -8z m-1523 -5 c-3 -3 -12 -4 -19 -1 -8 3 -5 6 6 6 11 1 17 -2 13 -5z m482
2 c-2 -2 -56 -18 -119 -35 -106 -29 -127 -31 -279 -31 -90 0 -162 3 -158 6 3
4 61 19 129 34 103 23 148 28 277 29 85 0 152 -1 150 -3z m291 -25 c-67 -22
-113 -29 -219 -35 -74 -3 -131 -3 -127 1 4 5 51 20 104 35 80 22 118 26 212
26 l115 0 -85 -27z m280 14 c-36 -8 -92 -16 -125 -19 l-60 -5 55 19 c35 12 81
19 125 18 l70 0 -65 -13z m980 -1 c-105 -33 -400 -71 -377 -48 6 7 360 62 397
62 17 0 11 -4 -20 -14z m-2071 2 c-9 -9 -258 -56 -294 -56 -64 0 -33 10 106
35 128 22 197 30 188 21z m1609 -21 c-13 -13 -216 -35 -318 -34 -147 2 -123 7
98 23 227 17 226 17 220 11z m-1433 -131 c-173 -29 -193 -29 -90 1 53 15 106
23 155 23 l75 0 -140 -24z m770 15 c-50 -8 -547 -60 -562 -58 -4 0 37 16 92
35 l100 33 210 -1 c151 0 196 -3 160 -9z m660 -25 c-55 -19 -186 -62 -291 -95
l-191 -59 -243 2 -242 3 483 92 c266 50 507 91 534 91 l50 0 -100 -34z m630
31 c-5 -3 -139 -45 -296 -95 l-286 -90 -199 0 -199 1 280 93 280 94 215 0
c118 0 211 -1 205 -3z m-957 -20 c-3 -3 -196 -41 -429 -85 -407 -77 -430 -80
-564 -79 l-140 1 391 68 c219 38 464 75 555 83 90 8 170 15 178 16 8 0 12 -1
9 -4z m-959 -20 c-3 -2 -34 -14 -69 -25 -61 -19 -536 -84 -570 -77 -15 3 574
104 619 106 13 0 22 -1 20 -4z m24 -72 c-7 -2 -19 -2 -25 0 -7 3 -2 5 12 5 14
0 19 -2 13 -5z m-138 -23 c-100 -19 -140 -20 -69 -1 69 17 78 19 124 19 33 0
19 -5 -55 -18z m-265 -28 c-24 -10 -70 -16 -145 -18 l-110 -2 130 17 c163 23
168 23 125 3z m149 -66 c-5 -5 -363 -56 -387 -55 -24 1 18 17 103 39 47 13
106 19 179 19 60 1 107 -1 105 -3z m869 -1 c-3 -3 -93 -33 -201 -65 l-195 -60
-534 1 -533 1 440 63 440 63 294 1 c162 1 292 -1 289 -4z m542 0 c0 -17 -173
-48 -415 -74 -154 -17 -296 -34 -315 -37 -69 -12 -20 7 156 61 l179 54 198 1
c108 0 197 -2 197 -5z m175 -5 c-16 -4 -43 -8 -60 -8 -29 0 -29 0 -5 8 14 4
41 8 60 8 l35 0 -30 -8z m554 5 c-6 -6 -202 -35 -226 -34 -10 0 11 9 47 19 58
16 191 27 179 15z m-410 -39 c-11 -11 -181 -48 -303 -66 -150 -22 -316 -27
-242 -8 43 12 473 75 520 77 16 0 27 -1 25 -3z m-870 -136 c-9 -5 -47 -14 -85
-20 -78 -11 -491 -51 -514 -49 -8 1 100 18 240 39 253 37 391 49 359 30z m710
6 c-7 -7 -258 -38 -277 -34 -9 2 33 11 93 20 111 15 192 22 184 14z m618 -2
c-3 -3 -12 -4 -19 -1 -8 3 -5 6 6 6 11 1 17 -2 13 -5z m-1984 -34 c-45 -18
-386 -60 -521 -64 -75 -3 -126 -2 -112 0 33 7 598 71 630 72 25 1 25 1 3 -8z
m1060 -7 c-7 -2 -21 -2 -30 0 -10 3 -4 5 12 5 17 0 24 -2 18 -5z m-658 -43
c-11 -5 -42 -8 -70 -8 l-50 1 50 7 c28 4 59 7 70 8 l20 1 -20 -9z m-667 -87
c-10 -2 -28 -2 -40 0 -13 2 -5 4 17 4 22 1 32 -1 23 -4z m1171 3 c-2 -2 -62
-16 -133 -30 -111 -22 -153 -26 -295 -25 -191 2 -174 6 164 38 195 19 271 24
264 17z m1051 -26 c-210 -28 -225 -29 -670 -29 l-455 1 135 28 135 28 535 0
535 0 -215 -28z m-1950 -6 c-36 -7 -112 -15 -170 -18 l-105 -5 145 18 c171 22
220 24 130 5z m20 -145 c-352 -72 -600 -108 -577 -84 8 9 330 114 442 145 59
16 104 19 295 18 l225 0 -385 -79z m1350 75 c-8 -2 -271 -38 -585 -80 -517
-70 -589 -77 -780 -82 -115 -2 -207 -1 -203 3 4 4 181 42 395 85 l388 78 400
0 c220 0 393 -2 385 -4z m695 1 c-10 -4 -741 -108 -1025 -145 -134 -18 -431
-28 -417 -14 9 9 363 56 1087 143 133 16 385 27 355 16z m84 -29 c-3 -3 -75
-27 -161 -55 -195 -62 -332 -81 -581 -81 -99 0 -178 3 -175 6 4 3 181 30 395
60 213 30 411 58 438 63 59 10 90 13 84 7z m-21 -123 c-10 -2 -26 -2 -35 0
-10 3 -2 5 17 5 19 0 27 -2 18 -5z m-2798 -59 c-30 -7 -73 -15 -95 -18 -37 -5
-36 -4 15 14 30 10 73 19 95 18 40 0 40 0 -15 -14z m1160 10 c-29 -7 -353 -34
-357 -30 -10 9 190 34 277 34 52 0 88 -2 80 -4z m845 1 c-5 -3 -203 -32 -440
-65 -236 -33 -653 -92 -925 -131 l-495 -70 -132 12 c-73 7 -133 15 -133 18 0
6 258 64 515 117 61 12 268 37 460 54 193 18 433 40 535 50 159 15 646 27 615
15z m995 -6 c-170 -42 -1347 -254 -1358 -244 -3 3 317 107 443 144 39 11 176
34 305 52 129 17 273 37 320 44 98 15 347 19 290 4z m-2395 -28 c-32 -13 -211
-43 -231 -39 -11 2 35 13 101 25 133 23 160 26 130 14z m2182 -87 c-3 -3 -12
-4 -19 -1 -8 3 -5 6 6 6 11 1 17 -2 13 -5z m-54 -11 c-7 -2 -19 -2 -25 0 -7 3
-2 5 12 5 14 0 19 -2 13 -5z m-938 -9 c-5 -2 -128 -37 -272 -79 l-262 -75
-173 1 -173 1 265 54 c305 63 675 122 615 98z m872 0 c-3 -3 -12 -4 -19 -1 -8
3 -5 6 6 6 11 1 17 -2 13 -5z m-180 -70 c-3 -3 -12 -4 -19 -1 -8 3 -5 6 6 6
11 1 17 -2 13 -5z m-400 -20 c-3 -3 -12 -4 -19 -1 -8 3 -5 6 6 6 11 1 17 -2
13 -5z m-64 -11 c-7 -2 -19 -2 -25 0 -7 3 -2 5 12 5 14 0 19 -2 13 -5z m-60
-10 c-7 -2 -19 -2 -25 0 -7 3 -2 5 12 5 14 0 19 -2 13 -5z m-1084 -8 c-11 -11
-155 -35 -202 -34 -42 1 -31 5 63 19 135 20 145 21 139 15z m1371 -25 c-14 -4
-50 -8 -80 -8 l-55 1 45 7 c25 4 61 7 80 8 31 0 32 -1 10 -8z m-1815 -66 c-33
-7 -91 -13 -130 -13 l-70 1 45 13 c25 7 83 13 130 13 l85 0 -60 -14z m552 9
c-20 -2 -52 -2 -70 0 -17 2 0 4 38 4 39 0 53 -2 32 -4z m1052 3 c-2 -2 -78
-21 -169 -41 l-165 -38 -150 13 c-82 7 -159 16 -169 20 -37 13 302 48 483 49
96 0 172 -1 170 -3z m941 0 c0 -13 -264 -88 -375 -107 -117 -19 -152 -21 -360
-15 -188 5 -450 28 -410 35 6 1 87 22 180 46 l170 43 398 1 c218 1 397 -1 397
-3z m-1567 -87 c75 -7 137 -16 137 -19 0 -15 -86 -20 -365 -19 -310 1 -319 4
-115 40 58 10 128 16 155 14 28 -2 112 -9 188 -16z m325 -36 c-10 -2 -28 -2
-40 0 -13 2 -5 4 17 4 22 1 32 -1 23 -4z m-1223 -59 c-49 -13 -134 -19 -123
-8 8 8 95 22 138 22 33 0 31 -1 -15 -14z m670 0 c-93 -19 -571 -16 -515 3 23
7 128 11 310 11 262 0 272 -1 205 -14z m1057 4 c-10 -10 -104 -14 -385 -16
-205 -2 -403 -2 -442 0 l-70 3 45 11 c67 18 869 19 852 2z m-335 -70 c-12 -4
-141 -21 -287 -38 -146 -17 -359 -42 -475 -56 -349 -41 -776 -110 -1148 -185
-136 -27 -217 -39 -260 -37 -61 3 -60 4 193 76 265 75 415 109 875 196 l273
51 426 0 c234 0 416 -3 403 -7z m453 -8 c-23 -12 -112 -29 -250 -49 -118 -18
-413 -61 -654 -97 -241 -35 -443 -63 -448 -62 -10 4 857 166 1082 202 80 13
181 24 225 24 l80 1 -35 -19z m189 16 c-2 -2 -29 -6 -59 -10 -38 -4 -50 -3
-40 4 13 9 109 15 99 6z m210 -56 c-115 -58 -117 -59 -240 -70 -68 -5 -166
-15 -217 -21 -52 -6 -96 -9 -98 -6 -3 2 26 23 64 45 67 40 74 42 298 75 126
19 247 35 269 35 38 1 33 -2 -76 -58z m-599 -74 c-72 -42 -82 -44 -255 -70
-99 -15 -301 -49 -450 -77 l-270 -49 -305 1 -305 1 215 31 c118 16 478 69 800
117 322 48 599 88 615 89 26 1 19 -5 -45 -43z m-825 9 c-5 -3 -242 -48 -525
-102 -469 -88 -528 -97 -660 -101 -80 -2 -143 -1 -140 2 11 10 401 79 805 142
225 35 554 72 520 59z m1404 -29 c-2 -2 -29 -6 -59 -9 -36 -4 -48 -3 -35 3 19
8 103 14 94 6z m-207 -18 c-13 -13 -472 -79 -472 -68 0 23 63 34 420 73 19 2
42 5 50 5 11 2 11 -1 2 -10z m258 -39 c-74 -22 -204 -57 -288 -79 -147 -38
-159 -40 -300 -39 -140 2 -143 2 -62 9 134 12 208 29 301 66 67 27 122 40 255
58 234 33 250 31 94 -15z m-780 -14 c0 -20 -93 -40 -322 -71 -144 -19 -267
-33 -272 -31 -10 3 252 51 474 86 63 11 116 19 118 20 1 1 2 -1 2 -4z m340
-26 c-32 -13 -222 -39 -275 -38 -54 2 -34 6 125 28 162 22 186 24 150 10z
m-552 -76 c-10 -2 -28 -2 -40 0 -13 2 -5 4 17 4 22 1 32 -1 23 -4z m-193 -43
c-53 -8 -378 -21 -359 -14 22 9 203 21 304 21 86 1 96 -1 55 -7z m333 -26 c-3
-3 -93 -18 -199 -34 -456 -70 -649 -101 -680 -112 -39 -13 -859 -28 -859 -15
0 4 8 7 18 7 10 0 147 25 304 55 314 59 281 57 1053 85 160 6 299 12 310 14
36 6 58 6 53 0z m627 -210 c-5 -2 -131 -22 -280 -45 -244 -38 -291 -42 -490
-45 -121 -2 -215 -2 -210 1 6 2 89 16 185 30 195 30 840 78 795 59z m-1260
-34 c-11 -5 -103 -20 -205 -34 -151 -21 -221 -26 -385 -25 -301 1 -206 18 270
49 94 6 190 12 215 14 98 6 126 5 105 -4z m393 4 c-11 -11 -404 -65 -453 -62
-36 2 4 11 150 31 110 16 207 30 215 32 27 5 93 5 88 -1z m1362 -18 c0 -12
-186 -46 -246 -45 -92 1 -56 14 91 33 123 15 155 18 155 12z m-1337 -123 c-7
-2 -19 -2 -25 0 -7 3 -2 5 12 5 14 0 19 -2 13 -5z m607 -8 c-25 -10 -93 -13
-245 -13 -115 0 -205 1 -200 4 29 12 169 22 315 22 149 0 162 -1 130 -13z
m190 -1 c-30 -8 -64 -12 -75 -11 -31 5 42 25 90 25 40 0 39 0 -15 -14z m-1222
-11 c-10 -2 -26 -2 -35 0 -10 3 -2 5 17 5 19 0 27 -2 18 -5z m-503 -78 c-5 -2
-147 -25 -315 -50 -267 -40 -322 -45 -440 -43 l-135 3 270 46 c251 43 283 46
450 47 99 0 176 -1 170 -3z m1186 -16 c-70 -24 -80 -25 -521 -54 -267 -18
-456 -25 -655 -24 -314 1 -313 3 40 49 127 16 259 34 295 39 36 5 252 9 480 9
l415 1 -54 -20z m54 -65 c-27 -8 -66 -13 -85 -11 l-35 3 45 11 c25 6 63 11 85
11 l40 0 -50 -14z m-1587 -61 c-43 -2 -113 -2 -155 0 -43 1 -8 3 77 3 85 0
120 -2 78 -3z m1370 2 c-16 -16 -428 -125 -468 -124 -19 1 291 107 345 118 45
10 131 14 123 6z m527 -6 c-71 -5 -213 -15 -314 -24 -101 -9 -185 -14 -188
-12 -2 3 31 14 74 25 68 17 108 20 318 20 226 -1 233 -1 110 -9z m155 -49
c-36 -9 -171 -45 -300 -78 -235 -60 -235 -60 -610 -96 -206 -20 -388 -38 -403
-39 -55 -7 -8 12 203 81 128 42 256 76 315 86 162 25 611 63 765 64 l95 0 -65
-18z m-2797 -17 c-7 -2 -19 -2 -25 0 -7 3 -2 5 12 5 14 0 19 -2 13 -5z m1507
-54 c-80 -28 -178 -50 -324 -75 -115 -19 -213 -33 -218 -32 -5 2 111 30 259
62 147 33 288 65 313 72 97 27 79 10 -30 -27z m-125 -90 c-33 -10 -64 -18 -70
-18 -18 1 89 37 110 37 11 0 -7 -8 -40 -19z m-310 -54 c-61 -21 -199 -35 -183
-20 7 7 196 42 228 43 14 0 -6 -11 -45 -23z m895 -2 c-44 -15 -291 -32 -279
-19 7 7 232 33 289 34 l35 0 -45 -15z m414 -94 c3 -3 -66 -10 -152 -17 -358
-28 -512 -46 -808 -93 -302 -47 -319 -49 -510 -48 l-199 1 95 14 c52 8 192 28
310 45 118 16 296 44 395 62 170 29 198 32 505 37 359 6 357 6 364 -1z m-904
-9 c-101 -18 -536 -80 -555 -79 -11 0 36 20 105 44 l125 43 185 0 c123 0 170
-3 140 -8z m1479 6 c-2 -1 -80 -26 -174 -54 -227 -68 -496 -103 -781 -101
l-189 1 405 69 c223 38 443 73 490 78 87 8 257 14 249 7z m-830 -61 c-3 -2
-128 -25 -278 -50 -217 -36 -297 -45 -385 -44 l-111 1 180 30 c201 33 606 76
594 63z m-1399 -155 c-58 -10 -148 -21 -200 -24 l-95 -6 65 24 c57 22 81 24
200 24 l135 0 -105 -18z m500 4 c-41 -7 -127 -12 -190 -12 l-115 0 65 13 c36
7 121 13 190 13 l125 -1 -75 -13z m620 5 c-25 -5 -137 -11 -250 -13 -190 -5
-200 -4 -140 8 40 9 135 14 250 14 133 0 172 -3 140 -9z m420 -5 c-27 -8 -81
-13 -135 -12 l-90 1 90 12 c50 7 110 13 135 13 l45 1 -45 -15z m575 -89 c-5
-3 -78 -16 -161 -30 -140 -23 -174 -25 -450 -24 l-299 1 85 28 85 28 375 0
c206 0 371 -1 365 -3z m-635 -94 l55 -7 -60 -7 c-33 -4 -159 -14 -280 -22
-121 -8 -237 -16 -257 -18 -59 -4 -30 10 57 28 129 27 373 40 485 26z m170
-62 c-163 -29 -430 -50 -400 -31 31 19 367 59 505 60 48 0 28 -6 -105 -29z
m655 -24 c-49 -13 -153 -20 -143 -10 7 7 115 23 158 23 32 0 31 -1 -15 -13z
m-1280 -6 c-22 -4 -58 -7 -80 -7 l-40 1 40 7 c22 4 58 7 80 7 l40 1 -40 -9z
m-690 -94 c-22 -8 -58 -13 -80 -13 -39 0 -39 1 15 13 76 18 119 17 65 0z m165
0 c-69 -18 -85 -17 -40 0 19 7 49 13 65 13 21 0 14 -4 -25 -13z m380 -1 c-74
-13 -228 -19 -218 -9 12 13 100 23 193 23 l100 -1 -75 -13z m315 5 c-22 -4
-51 -8 -65 -7 -35 1 34 15 75 16 25 0 23 -2 -10 -9z m574 7 c-2 -2 -83 -6
-179 -9 -96 -3 -159 -2 -140 3 35 7 327 13 319 6z m-1829 -106 c-30 -5 -77 -8
-105 -8 -43 0 -46 1 -20 8 17 4 64 8 105 7 l75 0 -55 -7z m665 -2 c-16 -6
-122 -12 -235 -13 l-205 -3 110 13 c141 16 374 18 330 3z m755 -9 c-41 -11
-106 -21 -145 -22 -111 -3 -541 4 -529 9 56 23 185 32 454 32 l295 0 -75 -19z
m1219 17 c-2 -2 -53 -14 -112 -25 -100 -20 -141 -21 -575 -20 -257 0 -460 3
-452 6 8 4 49 14 90 24 65 15 137 17 564 18 269 1 487 -1 485 -3z m-654 -106
c-96 -10 -289 -10 -250 0 17 4 95 7 175 7 119 0 132 -1 75 -7z"/>
<path d="M9828 9706 c-48 -6 -90 -15 -95 -20 -5 -5 15 -6 47 -2 30 3 88 6 128
6 57 0 72 3 72 15 0 18 -23 18 -152 1z"/>
</g>
</svg>
