<?xml version="1.0" standalone="no"?>
<!DOCTYPE svg PUBLIC "-//W3C//DTD SVG 20010904//EN"
 "http://www.w3.org/TR/2001/REC-SVG-20010904/DTD/svg10.dtd">
<svg version="1.0" xmlns="http://www.w3.org/2000/svg"
 width="1280.000000pt" height="1119.000000pt" viewBox="0 0 1280.000000 1119.000000"
 preserveAspectRatio="xMidYMid meet">
<g transform="translate(0.000000,1119.000000) scale(0.100000,-0.100000)"
fill="#000000" stroke="none">
<path d="M11424 11139 c-10 -12 -44 -38 -74 -59 -207 -141 -524 -219 -1055
-262 -226 -18 -1132 -15 -1690 6 -247 9 -571 21 -720 26 -460 18 -1500 24
-1825 11 -971 -38 -1669 -142 -2274 -338 -442 -143 -831 -343 -1126 -579 -180
-144 -398 -382 -493 -539 -78 -129 -149 -182 -371 -280 -919 -405 -1553 -1257
-1731 -2325 -13 -80 -29 -203 -35 -275 -6 -71 -15 -154 -21 -184 -12 -70 -12
-319 1 -413 5 -40 14 -134 20 -208 22 -254 82 -567 160 -835 21 -71 119 -353
218 -625 98 -272 190 -525 203 -562 13 -38 26 -68 29 -68 4 0 14 105 24 233
101 1344 314 2084 716 2487 279 280 644 419 1245 475 261 24 549 34 1100 40
920 10 1429 30 1645 66 167 28 417 92 690 179 309 98 392 120 486 127 98 7
142 -5 183 -52 44 -51 57 -124 42 -236 -10 -79 -67 -322 -86 -371 -4 -11 -3
-18 5 -18 6 0 75 33 153 74 888 466 1761 688 2457 626 916 -82 1664 -574 2265
-1490 365 -555 647 -1199 942 -2150 l20 -65 27 85 c100 311 185 776 216 1185
5 77 15 203 22 281 6 80 8 210 5 305 -34 903 -177 1589 -451 2154 -141 291
-258 459 -454 654 l-125 124 27 96 c15 52 67 203 115 335 122 331 163 484 195
731 32 240 40 350 40 590 1 251 -8 364 -40 490 -17 67 -63 175 -74 175 -4 0
-153 -43 -331 -96 -341 -101 -466 -131 -479 -117 -4 4 23 51 61 103 83 115
143 233 164 320 16 70 20 190 7 190 -5 0 -17 -10 -28 -21z"/>
<path d="M2440 3284 c-598 -15 -1389 -62 -1820 -110 -227 -25 -525 -70 -593
-90 -20 -6 -21 36 3 -534 22 -513 61 -769 127 -832 20 -19 51 -32 103 -43 139
-31 216 -105 312 -300 64 -128 99 -221 174 -460 73 -236 119 -340 192 -436 88
-116 165 -169 332 -232 301 -112 818 -192 1485 -227 381 -21 510 -23 679 -12
94 7 250 17 346 22 636 39 1136 152 1365 310 150 104 261 304 401 724 47 143
101 292 119 332 105 230 273 395 542 531 90 45 100 48 187 51 91 3 91 3 186
-43 129 -63 249 -145 338 -230 149 -141 206 -247 331 -617 130 -385 210 -551
323 -674 194 -211 763 -349 1613 -394 105 -5 245 -13 311 -16 166 -9 750 21
1094 57 620 63 1023 172 1183 319 126 116 194 244 286 542 97 311 168 475 267
614 55 79 116 119 210 140 41 9 85 25 98 35 77 61 115 327 146 1029 5 118 13
243 16 276 l7 62 -54 11 c-369 81 -1013 139 -2004 183 -396 17 -1944 18 -2235
0 -744 -44 -904 -75 -1353 -261 -117 -48 -241 -98 -277 -109 -182 -61 -411
-88 -596 -72 -214 19 -347 57 -649 184 -418 177 -604 214 -1315 257 -166 10
-1593 20 -1880 13z m1215 -254 c410 -12 634 -33 866 -80 540 -110 839 -351
925 -745 25 -118 24 -334 -5 -500 -132 -778 -314 -1127 -686 -1313 -286 -143
-722 -192 -1710 -192 -780 0 -1165 55 -1478 210 -333 166 -546 458 -645 885
-49 209 -65 367 -66 620 0 213 2 252 22 344 43 198 107 326 226 449 191 200
475 292 987 321 196 12 1204 12 1564 1z m7200 -9 c162 -17 328 -46 430 -76
477 -139 684 -484 662 -1100 -20 -545 -159 -962 -403 -1210 -241 -245 -543
-359 -1094 -416 -293 -30 -1386 -20 -1758 17 -597 58 -898 226 -1089 609 -102
202 -173 452 -244 855 -32 185 -31 409 4 541 69 261 232 448 500 574 286 134
649 197 1245 215 373 11 1613 5 1747 -9z"/>
</g>
</svg>
