<?xml version="1.0" standalone="no"?>
<!DOCTYPE svg PUBLIC "-//W3C//DTD SVG 20010904//EN"
 "http://www.w3.org/TR/2001/REC-SVG-20010904/DTD/svg10.dtd">
<svg version="1.0" xmlns="http://www.w3.org/2000/svg"
 width="1280.000000pt" height="752.000000pt" viewBox="0 0 1280.000000 752.000000"
 preserveAspectRatio="xMidYMid meet">
<metadata>
Created by potrace 1.15, written by Peter Selinger 2001-2017
</metadata>
<g transform="translate(0.000000,752.000000) scale(0.100000,-0.100000)"
fill="#000000" stroke="none">
<path d="M6753 7499 c-72 -28 -103 -67 -103 -129 0 -37 6 -55 25 -78 14 -17
25 -38 25 -47 0 -27 -75 -199 -133 -304 -61 -111 -108 -156 -223 -212 -59 -30
-101 -43 -155 -50 -41 -5 -103 -18 -137 -29 -35 -11 -80 -20 -100 -20 l-36 0
22 20 c12 12 22 25 22 30 0 5 12 20 27 34 24 22 25 28 15 51 -10 21 -9 32 3
55 8 16 15 49 15 74 0 63 7 78 30 63 11 -6 22 -9 25 -5 12 12 -23 75 -54 97
-40 28 -39 39 2 43 57 5 31 22 -80 51 -146 37 -233 35 -295 -8 -59 -42 -100
-112 -106 -181 -5 -63 14 -144 34 -144 9 0 14 -11 14 -28 0 -15 7 -38 16 -50
9 -14 14 -33 10 -46 l-6 -23 -164 5 c-146 4 -168 3 -192 -13 -36 -23 -133 -13
-229 25 -62 26 -92 30 -250 41 -116 7 -188 17 -202 25 -20 13 -23 23 -25 106
-3 106 -18 124 -46 57 l-18 -42 -54 69 c-61 78 -108 124 -127 124 -15 0 -18
-36 -3 -45 6 -3 10 -11 10 -16 0 -6 -14 1 -31 15 -17 14 -35 26 -40 26 -19 0
-69 -30 -69 -42 0 -6 16 -33 35 -59 35 -49 37 -63 4 -33 -35 32 -40 4 -7 -44
104 -152 216 -225 443 -291 149 -43 193 -52 291 -60 65 -6 118 -16 149 -30 44
-19 47 -23 40 -48 -4 -16 -8 -43 -8 -62 -2 -33 -1 -33 78 -61 117 -42 126 -59
145 -264 18 -192 -11 -302 -115 -431 -26 -33 -53 -66 -59 -74 -8 -10 -6 -17 8
-26 17 -13 17 -19 -15 -137 -19 -74 -35 -161 -39 -220 -7 -114 -14 -124 -106
-168 -53 -26 -74 -44 -136 -123 -98 -121 -118 -151 -118 -175 0 -11 -25 -43
-59 -74 -75 -70 -299 -234 -345 -253 -20 -9 -67 -15 -109 -15 -94 0 -173 -22
-180 -52 -5 -18 4 -54 27 -110 6 -13 -6 -25 -49 -54 -52 -35 -63 -38 -151 -44
-129 -9 -128 -7 -112 -148 10 -90 10 -121 -1 -155 -25 -85 -25 -86 14 -162 44
-88 84 -130 114 -120 19 6 21 14 22 83 1 93 17 153 46 167 37 19 53 37 53 61
0 12 5 26 11 30 6 3 8 17 5 30 -6 21 4 32 76 84 58 43 89 59 104 56 22 -6 165
69 519 272 361 206 360 206 619 502 88 101 175 199 191 217 l30 33 203 11
c184 11 204 10 221 -5 13 -12 25 -14 42 -8 13 5 35 5 49 1 14 -4 46 -7 72 -8
58 -1 73 -16 94 -89 21 -74 45 -120 101 -195 55 -75 75 -119 97 -216 25 -109
29 -114 81 -107 39 6 46 4 70 -21 43 -45 73 -104 81 -158 8 -55 43 -98 107
-128 79 -38 108 -15 147 114 12 40 35 86 59 115 49 62 74 111 101 202 25 81
22 124 -11 166 -22 28 -48 33 -80 16 -15 -9 -19 -22 -19 -68 0 -85 -50 -144
-144 -170 -21 -6 -44 -18 -50 -28 -9 -11 -19 -14 -34 -10 -33 11 -27 34 13 50
23 10 35 22 35 34 0 11 -33 54 -74 96 -67 69 -78 86 -126 198 -69 165 -97 249
-108 336 -13 90 -42 153 -91 191 -53 42 -82 51 -166 51 -63 0 -98 8 -226 51
-95 31 -178 53 -220 56 -49 4 -69 10 -69 20 0 7 27 61 60 119 79 140 114 223
152 363 16 64 36 128 44 143 16 30 62 69 185 156 90 64 149 122 149 148 0 40
33 75 103 110 241 121 289 188 366 514 48 203 54 247 38 307 -9 32 -10 56 -5
61 14 14 5 56 -12 59 -8 1 -38 -7 -67 -18z"/>
<path d="M12725 3120 c-61 -23 -152 -25 -225 -5 -128 34 -212 15 -315 -72 -87
-73 -122 -77 -340 -39 -339 60 -361 58 -556 -34 -166 -79 -191 -81 -604 -63
-380 17 -438 15 -526 -23 -84 -35 -115 -34 -384 18 l-220 42 -255 2 c-243 1
-269 3 -536 42 -287 42 -537 72 -769 93 -147 13 -276 2 -328 -28 -53 -31 -72
-84 -72 -198 0 -75 5 -113 19 -150 11 -28 80 -129 158 -233 161 -212 198 -268
418 -647 189 -324 218 -369 300 -462 33 -37 65 -83 71 -101 9 -29 7 -38 -18
-78 -55 -89 -64 -109 -57 -134 6 -28 31 -59 160 -206 131 -150 158 -221 130
-352 -38 -178 -8 -250 157 -379 54 -42 103 -85 108 -95 9 -17 77 -18 1882 -16
l1872 3 3 1568 c2 1251 0 1567 -10 1566 -7 0 -35 -9 -63 -19z"/>
<path d="M3380 3055 c-17 -21 5 -65 32 -65 27 0 78 28 78 43 0 36 -85 53 -110
22z"/>
<path d="M5 2869 c-3 -8 -4 -655 -3 -1439 l3 -1425 1141 -3 1142 -2 6 26 c4
15 22 50 41 80 52 82 68 116 146 320 65 173 106 261 174 383 24 42 25 52 25
209 0 91 -7 244 -16 341 -22 231 -19 243 97 479 110 222 139 265 217 320 73
51 128 111 151 165 37 86 105 313 104 349 0 44 -32 91 -70 106 -16 6 -74 12
-130 15 -93 4 -106 7 -144 33 l-42 29 -341 -1 c-268 0 -367 -4 -461 -17 -195
-29 -338 -32 -560 -12 -239 21 -446 17 -765 -15 -131 -13 -246 -20 -295 -17
-99 7 -217 33 -269 60 -49 26 -143 36 -151 16z"/>
<path d="M3284 2675 c-8 -19 22 -65 41 -65 20 0 19 30 -1 58 -18 26 -32 28
-40 7z"/>
<path d="M3331 2366 c-16 -19 -3 -46 23 -46 27 0 46 18 46 42 0 22 -51 25 -69
4z"/>
<path d="M3540 2320 c0 -39 57 -99 80 -85 19 11 10 33 -25 64 -37 32 -55 39
-55 21z"/>
</g>
</svg>
